<svg width="72" height="72" viewBox="0 0 72 72" fill="none" xmlns="http://www.w3.org/2000/svg">
<g clip-path="url(#clip0_501_1912)">
<path d="M56.0526 30.3158C55.0452 26.842 53.2122 23.6635 50.7102 21.0515C48.2082 18.4396 45.1115 16.4717 41.6842 15.3158C38.2982 14.3302 34.7392 14.088 31.2509 14.6058C27.7626 15.1236 24.4274 16.3892 21.4737 18.3158C21.2306 18.5593 20.9259 18.7321 20.5921 18.8156C20.2582 18.899 19.908 18.89 19.579 18.7895C18.9155 18.5746 18.3178 18.1942 17.8421 17.6842C17.4958 17.0594 17.3838 16.3316 17.5263 15.6316C17.6168 15.2956 17.7757 14.9819 17.993 14.7102C18.2104 14.4385 18.4815 14.2146 18.7895 14.0526C27.1579 9.15789 35.3684 7.89473 43.2632 10.4211C47.1499 11.7139 50.6984 13.8594 53.6489 16.7006C56.5994 19.5419 58.8773 23.0069 60.3158 26.8421H70.8947C68.7316 18.3094 63.5171 10.865 56.2373 5.91632C48.9574 0.967644 40.1167 -1.1423 31.3866 -0.0145862C22.6566 1.11313 14.6422 5.40034 8.85885 12.0365C3.07547 18.6726 -0.0760974 27.1977 3.93041e-06 36C3.93041e-06 37.4211 0.157899 38.6842 0.157899 40.1053H13.579C14.0915 40.0762 14.5997 40.2145 15.0268 40.4992C15.454 40.784 15.7771 41.1999 15.9474 41.6842C16.9786 45.146 18.8199 48.3124 21.3186 50.9209C23.8173 53.5294 26.9015 55.5051 30.3158 56.6842C33.7018 57.6698 37.2608 57.912 40.7491 57.3942C44.2374 56.8764 47.5726 55.6108 50.5263 53.6842C50.7694 53.4407 51.0742 53.2679 51.408 53.1844C51.7418 53.101 52.092 53.11 52.4211 53.2105C53.0845 53.4254 53.6822 53.8058 54.1579 54.3158C54.5042 54.9406 54.6162 55.6684 54.4737 56.3684C54.3832 56.7044 54.2243 57.0181 54.007 57.2898C53.7896 57.5615 53.5185 57.7854 53.2105 57.9474C48.451 61.1499 42.8419 62.8546 37.1053 62.8421C34.27 62.8207 31.4521 62.3954 28.7368 61.5789C24.8338 60.317 21.2696 58.1823 18.3148 55.337C15.3601 52.4917 13.0925 49.0106 11.6842 45.1579H1.26316C3.54578 53.5502 8.78941 60.8325 16.0248 65.6586C23.2602 70.4847 31.9981 72.5283 40.6233 71.4116C49.2486 70.295 57.178 66.0936 62.9458 59.584C68.7136 53.0745 71.9298 44.6969 72 36C72.0294 34.6822 71.9767 33.3639 71.8421 32.0526H58.579C58.0406 32.0171 57.5218 31.8369 57.0772 31.5313C56.6326 31.2256 56.2786 30.8057 56.0526 30.3158Z" fill="#100A42"/>
<path d="M36.1523 51.7492C39.2607 51.7193 42.2908 50.7702 44.8609 49.0215C47.431 47.2728 49.4261 44.8027 50.595 41.9222C51.7639 39.0418 52.0542 35.8799 51.4295 32.8347C50.8048 29.7895 49.293 26.9973 47.0844 24.8098C44.8758 22.6222 42.0692 21.1372 39.0183 20.5416C35.9673 19.9461 32.8083 20.2667 29.9391 21.4631C27.07 22.6595 24.6191 24.6782 22.8951 27.2649C21.171 29.8516 20.251 32.8906 20.2509 35.9992C20.2508 38.0803 20.6631 40.1408 21.4641 42.0616C22.265 43.9824 23.4387 45.7255 24.9173 47.19C26.3959 48.6545 28.1501 49.8115 30.0785 50.594C32.0069 51.3765 34.0713 51.7692 36.1523 51.7492Z" fill="white"/>
</g>
<defs>
<clipPath id="clip0_501_1912">
<rect width="72" height="72" fill="white"/>
</clipPath>
</defs>
</svg>
