<svg width="728" height="595" viewBox="0 0 728 595" fill="none" xmlns="http://www.w3.org/2000/svg">
<g opacity="0.3" clip-path="url(#clip0_1211_1246)">
<path d="M402.788 10.5769C405.709 10.5769 408.077 8.2092 408.077 5.28846C408.077 2.36772 405.709 0 402.788 0C399.868 0 397.5 2.36772 397.5 5.28846C397.5 8.2092 399.868 10.5769 402.788 10.5769Z" fill="#100A42"/>
<path d="M430.288 10.5769C433.209 10.5769 435.577 8.2092 435.577 5.28846C435.577 2.36772 433.209 0 430.288 0C427.368 0 425 2.36772 425 5.28846C425 8.2092 427.368 10.5769 430.288 10.5769Z" fill="#100A42"/>
<path d="M457.788 10.5769C460.709 10.5769 463.077 8.2092 463.077 5.28846C463.077 2.36772 460.709 0 457.788 0C454.868 0 452.5 2.36772 452.5 5.28846C452.5 8.2092 454.868 10.5769 457.788 10.5769Z" fill="#100A42"/>
<path d="M485.288 10.5769C488.209 10.5769 490.577 8.2092 490.577 5.28846C490.577 2.36772 488.209 0 485.288 0C482.368 0 480 2.36772 480 5.28846C480 8.2092 482.368 10.5769 485.288 10.5769Z" fill="#100A42"/>
<path d="M512.788 10.5769C515.709 10.5769 518.077 8.2092 518.077 5.28846C518.077 2.36772 515.709 0 512.788 0C509.868 0 507.5 2.36772 507.5 5.28846C507.5 8.2092 509.868 10.5769 512.788 10.5769Z" fill="#100A42"/>
<path d="M540.288 10.5769C543.209 10.5769 545.577 8.2092 545.577 5.28846C545.577 2.36772 543.209 0 540.288 0C537.368 0 535 2.36772 535 5.28846C535 8.2092 537.368 10.5769 540.288 10.5769Z" fill="#100A42"/>
<path d="M567.788 10.5769C570.709 10.5769 573.077 8.2092 573.077 5.28846C573.077 2.36772 570.709 0 567.788 0C564.868 0 562.5 2.36772 562.5 5.28846C562.5 8.2092 564.868 10.5769 567.788 10.5769Z" fill="#100A42"/>
<path d="M595.288 10.5769C598.209 10.5769 600.577 8.2092 600.577 5.28846C600.577 2.36772 598.209 0 595.288 0C592.368 0 590 2.36772 590 5.28846C590 8.2092 592.368 10.5769 595.288 10.5769Z" fill="#100A42"/>
<path d="M622.788 10.5769C625.709 10.5769 628.077 8.2092 628.077 5.28846C628.077 2.36772 625.709 0 622.788 0C619.868 0 617.5 2.36772 617.5 5.28846C617.5 8.2092 619.868 10.5769 622.788 10.5769Z" fill="#100A42"/>
<path d="M650.288 10.5769C653.209 10.5769 655.577 8.2092 655.577 5.28846C655.577 2.36772 653.209 0 650.288 0C647.368 0 645 2.36772 645 5.28846C645 8.2092 647.368 10.5769 650.288 10.5769Z" fill="#100A42"/>
<path d="M677.788 10.5769C680.709 10.5769 683.077 8.2092 683.077 5.28846C683.077 2.36772 680.709 0 677.788 0C674.868 0 672.5 2.36772 672.5 5.28846C672.5 8.2092 674.868 10.5769 677.788 10.5769Z" fill="#100A42"/>
<path d="M705.288 10.5769C708.209 10.5769 710.577 8.2092 710.577 5.28846C710.577 2.36772 708.209 0 705.288 0C702.368 0 700 2.36772 700 5.28846C700 8.2092 702.368 10.5769 705.288 10.5769Z" fill="#100A42"/>
<path d="M402.788 38.0769C405.709 38.0769 408.077 35.7092 408.077 32.7885C408.077 29.8677 405.709 27.5 402.788 27.5C399.868 27.5 397.5 29.8677 397.5 32.7885C397.5 35.7092 399.868 38.0769 402.788 38.0769Z" fill="#100A42"/>
<path d="M430.288 38.0769C433.209 38.0769 435.577 35.7092 435.577 32.7885C435.577 29.8677 433.209 27.5 430.288 27.5C427.368 27.5 425 29.8677 425 32.7885C425 35.7092 427.368 38.0769 430.288 38.0769Z" fill="#100A42"/>
<path d="M457.788 38.0769C460.709 38.0769 463.077 35.7092 463.077 32.7885C463.077 29.8677 460.709 27.5 457.788 27.5C454.868 27.5 452.5 29.8677 452.5 32.7885C452.5 35.7092 454.868 38.0769 457.788 38.0769Z" fill="#100A42"/>
<path d="M485.288 38.0769C488.209 38.0769 490.577 35.7092 490.577 32.7885C490.577 29.8677 488.209 27.5 485.288 27.5C482.368 27.5 480 29.8677 480 32.7885C480 35.7092 482.368 38.0769 485.288 38.0769Z" fill="#100A42"/>
<path d="M512.788 38.0769C515.709 38.0769 518.077 35.7092 518.077 32.7885C518.077 29.8677 515.709 27.5 512.788 27.5C509.868 27.5 507.5 29.8677 507.5 32.7885C507.5 35.7092 509.868 38.0769 512.788 38.0769Z" fill="#100A42"/>
<path d="M540.288 38.0769C543.209 38.0769 545.577 35.7092 545.577 32.7885C545.577 29.8677 543.209 27.5 540.288 27.5C537.368 27.5 535 29.8677 535 32.7885C535 35.7092 537.368 38.0769 540.288 38.0769Z" fill="#100A42"/>
<path d="M567.788 38.0769C570.709 38.0769 573.077 35.7092 573.077 32.7885C573.077 29.8677 570.709 27.5 567.788 27.5C564.868 27.5 562.5 29.8677 562.5 32.7885C562.5 35.7092 564.868 38.0769 567.788 38.0769Z" fill="#100A42"/>
<path d="M595.288 38.0769C598.209 38.0769 600.577 35.7092 600.577 32.7885C600.577 29.8677 598.209 27.5 595.288 27.5C592.368 27.5 590 29.8677 590 32.7885C590 35.7092 592.368 38.0769 595.288 38.0769Z" fill="#100A42"/>
<path d="M622.788 38.0769C625.709 38.0769 628.077 35.7092 628.077 32.7885C628.077 29.8677 625.709 27.5 622.788 27.5C619.868 27.5 617.5 29.8677 617.5 32.7885C617.5 35.7092 619.868 38.0769 622.788 38.0769Z" fill="#100A42"/>
<path d="M650.288 38.0769C653.209 38.0769 655.577 35.7092 655.577 32.7885C655.577 29.8677 653.209 27.5 650.288 27.5C647.368 27.5 645 29.8677 645 32.7885C645 35.7092 647.368 38.0769 650.288 38.0769Z" fill="#100A42"/>
<path d="M677.788 38.0769C680.709 38.0769 683.077 35.7092 683.077 32.7885C683.077 29.8677 680.709 27.5 677.788 27.5C674.868 27.5 672.5 29.8677 672.5 32.7885C672.5 35.7092 674.868 38.0769 677.788 38.0769Z" fill="#100A42"/>
<path d="M705.288 38.0769C708.209 38.0769 710.577 35.7092 710.577 32.7885C710.577 29.8677 708.209 27.5 705.288 27.5C702.368 27.5 700 29.8677 700 32.7885C700 35.7092 702.368 38.0769 705.288 38.0769Z" fill="#100A42"/>
<path d="M402.788 65.5769C405.709 65.5769 408.077 63.2092 408.077 60.2885C408.077 57.3677 405.709 55 402.788 55C399.868 55 397.5 57.3677 397.5 60.2885C397.5 63.2092 399.868 65.5769 402.788 65.5769Z" fill="#100A42"/>
<path d="M430.288 65.5769C433.209 65.5769 435.577 63.2092 435.577 60.2885C435.577 57.3677 433.209 55 430.288 55C427.368 55 425 57.3677 425 60.2885C425 63.2092 427.368 65.5769 430.288 65.5769Z" fill="#100A42"/>
<path d="M457.788 65.5769C460.709 65.5769 463.077 63.2092 463.077 60.2885C463.077 57.3677 460.709 55 457.788 55C454.868 55 452.5 57.3677 452.5 60.2885C452.5 63.2092 454.868 65.5769 457.788 65.5769Z" fill="#100A42"/>
<path d="M485.288 65.5769C488.209 65.5769 490.577 63.2092 490.577 60.2885C490.577 57.3677 488.209 55 485.288 55C482.368 55 480 57.3677 480 60.2885C480 63.2092 482.368 65.5769 485.288 65.5769Z" fill="#100A42"/>
<path d="M512.788 65.5769C515.709 65.5769 518.077 63.2092 518.077 60.2885C518.077 57.3677 515.709 55 512.788 55C509.868 55 507.5 57.3677 507.5 60.2885C507.5 63.2092 509.868 65.5769 512.788 65.5769Z" fill="#100A42"/>
<path d="M540.288 65.5769C543.209 65.5769 545.577 63.2092 545.577 60.2885C545.577 57.3677 543.209 55 540.288 55C537.368 55 535 57.3677 535 60.2885C535 63.2092 537.368 65.5769 540.288 65.5769Z" fill="#100A42"/>
<path d="M567.788 65.5769C570.709 65.5769 573.077 63.2092 573.077 60.2885C573.077 57.3677 570.709 55 567.788 55C564.868 55 562.5 57.3677 562.5 60.2885C562.5 63.2092 564.868 65.5769 567.788 65.5769Z" fill="#100A42"/>
<path d="M595.288 65.5769C598.209 65.5769 600.577 63.2092 600.577 60.2885C600.577 57.3677 598.209 55 595.288 55C592.368 55 590 57.3677 590 60.2885C590 63.2092 592.368 65.5769 595.288 65.5769Z" fill="#100A42"/>
<path d="M622.788 65.5769C625.709 65.5769 628.077 63.2092 628.077 60.2885C628.077 57.3677 625.709 55 622.788 55C619.868 55 617.5 57.3677 617.5 60.2885C617.5 63.2092 619.868 65.5769 622.788 65.5769Z" fill="#100A42"/>
<path d="M650.288 65.5769C653.209 65.5769 655.577 63.2092 655.577 60.2885C655.577 57.3677 653.209 55 650.288 55C647.368 55 645 57.3677 645 60.2885C645 63.2092 647.368 65.5769 650.288 65.5769Z" fill="#100A42"/>
<path d="M677.788 65.5769C680.709 65.5769 683.077 63.2092 683.077 60.2885C683.077 57.3677 680.709 55 677.788 55C674.868 55 672.5 57.3677 672.5 60.2885C672.5 63.2092 674.868 65.5769 677.788 65.5769Z" fill="#100A42"/>
<path d="M705.288 65.5769C708.209 65.5769 710.577 63.2092 710.577 60.2885C710.577 57.3677 708.209 55 705.288 55C702.368 55 700 57.3677 700 60.2885C700 63.2092 702.368 65.5769 705.288 65.5769Z" fill="#100A42"/>
<path d="M402.788 93.0769C405.709 93.0769 408.077 90.7092 408.077 87.7885C408.077 84.8677 405.709 82.5 402.788 82.5C399.868 82.5 397.5 84.8677 397.5 87.7885C397.5 90.7092 399.868 93.0769 402.788 93.0769Z" fill="#100A42"/>
<path d="M430.288 93.0769C433.209 93.0769 435.577 90.7092 435.577 87.7885C435.577 84.8677 433.209 82.5 430.288 82.5C427.368 82.5 425 84.8677 425 87.7885C425 90.7092 427.368 93.0769 430.288 93.0769Z" fill="#100A42"/>
<path d="M457.788 93.0769C460.709 93.0769 463.077 90.7092 463.077 87.7885C463.077 84.8677 460.709 82.5 457.788 82.5C454.868 82.5 452.5 84.8677 452.5 87.7885C452.5 90.7092 454.868 93.0769 457.788 93.0769Z" fill="#100A42"/>
<path d="M485.288 93.0769C488.209 93.0769 490.577 90.7092 490.577 87.7885C490.577 84.8677 488.209 82.5 485.288 82.5C482.368 82.5 480 84.8677 480 87.7885C480 90.7092 482.368 93.0769 485.288 93.0769Z" fill="#100A42"/>
<path d="M512.788 93.0769C515.709 93.0769 518.077 90.7092 518.077 87.7885C518.077 84.8677 515.709 82.5 512.788 82.5C509.868 82.5 507.5 84.8677 507.5 87.7885C507.5 90.7092 509.868 93.0769 512.788 93.0769Z" fill="#100A42"/>
<path d="M540.288 93.0769C543.209 93.0769 545.577 90.7092 545.577 87.7885C545.577 84.8677 543.209 82.5 540.288 82.5C537.368 82.5 535 84.8677 535 87.7885C535 90.7092 537.368 93.0769 540.288 93.0769Z" fill="#100A42"/>
<path d="M567.788 93.0769C570.709 93.0769 573.077 90.7092 573.077 87.7885C573.077 84.8677 570.709 82.5 567.788 82.5C564.868 82.5 562.5 84.8677 562.5 87.7885C562.5 90.7092 564.868 93.0769 567.788 93.0769Z" fill="#100A42"/>
<path d="M595.288 93.0769C598.209 93.0769 600.577 90.7092 600.577 87.7885C600.577 84.8677 598.209 82.5 595.288 82.5C592.368 82.5 590 84.8677 590 87.7885C590 90.7092 592.368 93.0769 595.288 93.0769Z" fill="#100A42"/>
<path d="M622.788 93.0769C625.709 93.0769 628.077 90.7092 628.077 87.7885C628.077 84.8677 625.709 82.5 622.788 82.5C619.868 82.5 617.5 84.8677 617.5 87.7885C617.5 90.7092 619.868 93.0769 622.788 93.0769Z" fill="#100A42"/>
<path d="M650.288 93.0769C653.209 93.0769 655.577 90.7092 655.577 87.7885C655.577 84.8677 653.209 82.5 650.288 82.5C647.368 82.5 645 84.8677 645 87.7885C645 90.7092 647.368 93.0769 650.288 93.0769Z" fill="#100A42"/>
<path d="M677.788 93.0769C680.709 93.0769 683.077 90.7092 683.077 87.7885C683.077 84.8677 680.709 82.5 677.788 82.5C674.868 82.5 672.5 84.8677 672.5 87.7885C672.5 90.7092 674.868 93.0769 677.788 93.0769Z" fill="#100A42"/>
<path d="M705.288 93.0769C708.209 93.0769 710.577 90.7092 710.577 87.7885C710.577 84.8677 708.209 82.5 705.288 82.5C702.368 82.5 700 84.8677 700 87.7885C700 90.7092 702.368 93.0769 705.288 93.0769Z" fill="#100A42"/>
<path d="M402.788 120.577C405.709 120.577 408.077 118.209 408.077 115.288C408.077 112.368 405.709 110 402.788 110C399.868 110 397.5 112.368 397.5 115.288C397.5 118.209 399.868 120.577 402.788 120.577Z" fill="#100A42"/>
<path d="M430.288 120.577C433.209 120.577 435.577 118.209 435.577 115.288C435.577 112.368 433.209 110 430.288 110C427.368 110 425 112.368 425 115.288C425 118.209 427.368 120.577 430.288 120.577Z" fill="#100A42"/>
<path d="M457.788 120.577C460.709 120.577 463.077 118.209 463.077 115.288C463.077 112.368 460.709 110 457.788 110C454.868 110 452.5 112.368 452.5 115.288C452.5 118.209 454.868 120.577 457.788 120.577Z" fill="#100A42"/>
<path d="M485.288 120.577C488.209 120.577 490.577 118.209 490.577 115.288C490.577 112.368 488.209 110 485.288 110C482.368 110 480 112.368 480 115.288C480 118.209 482.368 120.577 485.288 120.577Z" fill="#100A42"/>
<path d="M512.788 120.577C515.709 120.577 518.077 118.209 518.077 115.288C518.077 112.368 515.709 110 512.788 110C509.868 110 507.5 112.368 507.5 115.288C507.5 118.209 509.868 120.577 512.788 120.577Z" fill="#100A42"/>
<path d="M540.288 120.577C543.209 120.577 545.577 118.209 545.577 115.288C545.577 112.368 543.209 110 540.288 110C537.368 110 535 112.368 535 115.288C535 118.209 537.368 120.577 540.288 120.577Z" fill="#100A42"/>
<path d="M567.788 120.577C570.709 120.577 573.077 118.209 573.077 115.288C573.077 112.368 570.709 110 567.788 110C564.868 110 562.5 112.368 562.5 115.288C562.5 118.209 564.868 120.577 567.788 120.577Z" fill="#100A42"/>
<path d="M595.288 120.577C598.209 120.577 600.577 118.209 600.577 115.288C600.577 112.368 598.209 110 595.288 110C592.368 110 590 112.368 590 115.288C590 118.209 592.368 120.577 595.288 120.577Z" fill="#100A42"/>
<path d="M622.788 120.577C625.709 120.577 628.077 118.209 628.077 115.288C628.077 112.368 625.709 110 622.788 110C619.868 110 617.5 112.368 617.5 115.288C617.5 118.209 619.868 120.577 622.788 120.577Z" fill="#100A42"/>
<path d="M650.288 120.577C653.209 120.577 655.577 118.209 655.577 115.288C655.577 112.368 653.209 110 650.288 110C647.368 110 645 112.368 645 115.288C645 118.209 647.368 120.577 650.288 120.577Z" fill="#100A42"/>
<path d="M677.788 120.577C680.709 120.577 683.077 118.209 683.077 115.288C683.077 112.368 680.709 110 677.788 110C674.868 110 672.5 112.368 672.5 115.288C672.5 118.209 674.868 120.577 677.788 120.577Z" fill="#100A42"/>
<path d="M705.288 120.577C708.209 120.577 710.577 118.209 710.577 115.288C710.577 112.368 708.209 110 705.288 110C702.368 110 700 112.368 700 115.288C700 118.209 702.368 120.577 705.288 120.577Z" fill="#100A42"/>
<path d="M402.788 148.077C405.709 148.077 408.077 145.709 408.077 142.788C408.077 139.868 405.709 137.5 402.788 137.5C399.868 137.5 397.5 139.868 397.5 142.788C397.5 145.709 399.868 148.077 402.788 148.077Z" fill="#100A42"/>
<path d="M430.288 148.077C433.209 148.077 435.577 145.709 435.577 142.788C435.577 139.868 433.209 137.5 430.288 137.5C427.368 137.5 425 139.868 425 142.788C425 145.709 427.368 148.077 430.288 148.077Z" fill="#100A42"/>
<path d="M457.788 148.077C460.709 148.077 463.077 145.709 463.077 142.788C463.077 139.868 460.709 137.5 457.788 137.5C454.868 137.5 452.5 139.868 452.5 142.788C452.5 145.709 454.868 148.077 457.788 148.077Z" fill="#100A42"/>
<path d="M485.288 148.077C488.209 148.077 490.577 145.709 490.577 142.788C490.577 139.868 488.209 137.5 485.288 137.5C482.368 137.5 480 139.868 480 142.788C480 145.709 482.368 148.077 485.288 148.077Z" fill="#100A42"/>
<path d="M512.788 148.077C515.709 148.077 518.077 145.709 518.077 142.788C518.077 139.868 515.709 137.5 512.788 137.5C509.868 137.5 507.5 139.868 507.5 142.788C507.5 145.709 509.868 148.077 512.788 148.077Z" fill="#100A42"/>
<path d="M540.288 148.077C543.209 148.077 545.577 145.709 545.577 142.788C545.577 139.868 543.209 137.5 540.288 137.5C537.368 137.5 535 139.868 535 142.788C535 145.709 537.368 148.077 540.288 148.077Z" fill="#100A42"/>
<path d="M567.788 148.077C570.709 148.077 573.077 145.709 573.077 142.788C573.077 139.868 570.709 137.5 567.788 137.5C564.868 137.5 562.5 139.868 562.5 142.788C562.5 145.709 564.868 148.077 567.788 148.077Z" fill="#100A42"/>
<path d="M595.288 148.077C598.209 148.077 600.577 145.709 600.577 142.788C600.577 139.868 598.209 137.5 595.288 137.5C592.368 137.5 590 139.868 590 142.788C590 145.709 592.368 148.077 595.288 148.077Z" fill="#100A42"/>
<path d="M622.788 148.077C625.709 148.077 628.077 145.709 628.077 142.788C628.077 139.868 625.709 137.5 622.788 137.5C619.868 137.5 617.5 139.868 617.5 142.788C617.5 145.709 619.868 148.077 622.788 148.077Z" fill="#100A42"/>
<path d="M650.288 148.077C653.209 148.077 655.577 145.709 655.577 142.788C655.577 139.868 653.209 137.5 650.288 137.5C647.368 137.5 645 139.868 645 142.788C645 145.709 647.368 148.077 650.288 148.077Z" fill="#100A42"/>
<path d="M677.788 148.077C680.709 148.077 683.077 145.709 683.077 142.788C683.077 139.868 680.709 137.5 677.788 137.5C674.868 137.5 672.5 139.868 672.5 142.788C672.5 145.709 674.868 148.077 677.788 148.077Z" fill="#100A42"/>
<path d="M705.288 148.077C708.209 148.077 710.577 145.709 710.577 142.788C710.577 139.868 708.209 137.5 705.288 137.5C702.368 137.5 700 139.868 700 142.788C700 145.709 702.368 148.077 705.288 148.077Z" fill="#100A42"/>
<path d="M402.788 175.577C405.709 175.577 408.077 173.209 408.077 170.288C408.077 167.368 405.709 165 402.788 165C399.868 165 397.5 167.368 397.5 170.288C397.5 173.209 399.868 175.577 402.788 175.577Z" fill="#100A42"/>
<path d="M430.288 175.577C433.209 175.577 435.577 173.209 435.577 170.288C435.577 167.368 433.209 165 430.288 165C427.368 165 425 167.368 425 170.288C425 173.209 427.368 175.577 430.288 175.577Z" fill="#100A42"/>
<path d="M457.788 175.577C460.709 175.577 463.077 173.209 463.077 170.288C463.077 167.368 460.709 165 457.788 165C454.868 165 452.5 167.368 452.5 170.288C452.5 173.209 454.868 175.577 457.788 175.577Z" fill="#100A42"/>
<path d="M485.288 175.577C488.209 175.577 490.577 173.209 490.577 170.288C490.577 167.368 488.209 165 485.288 165C482.368 165 480 167.368 480 170.288C480 173.209 482.368 175.577 485.288 175.577Z" fill="#100A42"/>
<path d="M512.788 175.577C515.709 175.577 518.077 173.209 518.077 170.288C518.077 167.368 515.709 165 512.788 165C509.868 165 507.5 167.368 507.5 170.288C507.5 173.209 509.868 175.577 512.788 175.577Z" fill="#100A42"/>
<path d="M540.288 175.577C543.209 175.577 545.577 173.209 545.577 170.288C545.577 167.368 543.209 165 540.288 165C537.368 165 535 167.368 535 170.288C535 173.209 537.368 175.577 540.288 175.577Z" fill="#100A42"/>
<path d="M567.788 175.577C570.709 175.577 573.077 173.209 573.077 170.288C573.077 167.368 570.709 165 567.788 165C564.868 165 562.5 167.368 562.5 170.288C562.5 173.209 564.868 175.577 567.788 175.577Z" fill="#100A42"/>
<path d="M595.288 175.577C598.209 175.577 600.577 173.209 600.577 170.288C600.577 167.368 598.209 165 595.288 165C592.368 165 590 167.368 590 170.288C590 173.209 592.368 175.577 595.288 175.577Z" fill="#100A42"/>
<path d="M622.788 175.577C625.709 175.577 628.077 173.209 628.077 170.288C628.077 167.368 625.709 165 622.788 165C619.868 165 617.5 167.368 617.5 170.288C617.5 173.209 619.868 175.577 622.788 175.577Z" fill="#100A42"/>
<path d="M650.288 175.577C653.209 175.577 655.577 173.209 655.577 170.288C655.577 167.368 653.209 165 650.288 165C647.368 165 645 167.368 645 170.288C645 173.209 647.368 175.577 650.288 175.577Z" fill="#100A42"/>
<path d="M677.788 175.577C680.709 175.577 683.077 173.209 683.077 170.288C683.077 167.368 680.709 165 677.788 165C674.868 165 672.5 167.368 672.5 170.288C672.5 173.209 674.868 175.577 677.788 175.577Z" fill="#100A42"/>
<path d="M705.288 175.577C708.209 175.577 710.577 173.209 710.577 170.288C710.577 167.368 708.209 165 705.288 165C702.368 165 700 167.368 700 170.288C700 173.209 702.368 175.577 705.288 175.577Z" fill="#100A42"/>
<path d="M402.788 203.077C405.709 203.077 408.077 200.709 408.077 197.788C408.077 194.868 405.709 192.5 402.788 192.5C399.868 192.5 397.5 194.868 397.5 197.788C397.5 200.709 399.868 203.077 402.788 203.077Z" fill="#100A42"/>
<path d="M430.288 203.077C433.209 203.077 435.577 200.709 435.577 197.788C435.577 194.868 433.209 192.5 430.288 192.5C427.368 192.5 425 194.868 425 197.788C425 200.709 427.368 203.077 430.288 203.077Z" fill="#100A42"/>
<path d="M457.788 203.077C460.709 203.077 463.077 200.709 463.077 197.788C463.077 194.868 460.709 192.5 457.788 192.5C454.868 192.5 452.5 194.868 452.5 197.788C452.5 200.709 454.868 203.077 457.788 203.077Z" fill="#100A42"/>
<path d="M485.288 203.077C488.209 203.077 490.577 200.709 490.577 197.788C490.577 194.868 488.209 192.5 485.288 192.5C482.368 192.5 480 194.868 480 197.788C480 200.709 482.368 203.077 485.288 203.077Z" fill="#100A42"/>
<path d="M512.788 203.077C515.709 203.077 518.077 200.709 518.077 197.788C518.077 194.868 515.709 192.5 512.788 192.5C509.868 192.5 507.5 194.868 507.5 197.788C507.5 200.709 509.868 203.077 512.788 203.077Z" fill="#100A42"/>
<path d="M540.288 203.077C543.209 203.077 545.577 200.709 545.577 197.788C545.577 194.868 543.209 192.5 540.288 192.5C537.368 192.5 535 194.868 535 197.788C535 200.709 537.368 203.077 540.288 203.077Z" fill="#100A42"/>
<path d="M567.788 203.077C570.709 203.077 573.077 200.709 573.077 197.788C573.077 194.868 570.709 192.5 567.788 192.5C564.868 192.5 562.5 194.868 562.5 197.788C562.5 200.709 564.868 203.077 567.788 203.077Z" fill="#100A42"/>
<path d="M595.288 203.077C598.209 203.077 600.577 200.709 600.577 197.788C600.577 194.868 598.209 192.5 595.288 192.5C592.368 192.5 590 194.868 590 197.788C590 200.709 592.368 203.077 595.288 203.077Z" fill="#100A42"/>
<path d="M622.788 203.077C625.709 203.077 628.077 200.709 628.077 197.788C628.077 194.868 625.709 192.5 622.788 192.5C619.868 192.5 617.5 194.868 617.5 197.788C617.5 200.709 619.868 203.077 622.788 203.077Z" fill="#100A42"/>
<path d="M650.288 203.077C653.209 203.077 655.577 200.709 655.577 197.788C655.577 194.868 653.209 192.5 650.288 192.5C647.368 192.5 645 194.868 645 197.788C645 200.709 647.368 203.077 650.288 203.077Z" fill="#100A42"/>
<path d="M677.788 203.077C680.709 203.077 683.077 200.709 683.077 197.788C683.077 194.868 680.709 192.5 677.788 192.5C674.868 192.5 672.5 194.868 672.5 197.788C672.5 200.709 674.868 203.077 677.788 203.077Z" fill="#100A42"/>
<path d="M705.288 203.077C708.209 203.077 710.577 200.709 710.577 197.788C710.577 194.868 708.209 192.5 705.288 192.5C702.368 192.5 700 194.868 700 197.788C700 200.709 702.368 203.077 705.288 203.077Z" fill="#100A42"/>
<path d="M402.788 230.577C405.709 230.577 408.077 228.209 408.077 225.288C408.077 222.368 405.709 220 402.788 220C399.868 220 397.5 222.368 397.5 225.288C397.5 228.209 399.868 230.577 402.788 230.577Z" fill="#100A42"/>
<path d="M430.288 230.577C433.209 230.577 435.577 228.209 435.577 225.288C435.577 222.368 433.209 220 430.288 220C427.368 220 425 222.368 425 225.288C425 228.209 427.368 230.577 430.288 230.577Z" fill="#100A42"/>
<path d="M457.788 230.577C460.709 230.577 463.077 228.209 463.077 225.288C463.077 222.368 460.709 220 457.788 220C454.868 220 452.5 222.368 452.5 225.288C452.5 228.209 454.868 230.577 457.788 230.577Z" fill="#100A42"/>
<path d="M485.288 230.577C488.209 230.577 490.577 228.209 490.577 225.288C490.577 222.368 488.209 220 485.288 220C482.368 220 480 222.368 480 225.288C480 228.209 482.368 230.577 485.288 230.577Z" fill="#100A42"/>
<path d="M512.788 230.577C515.709 230.577 518.077 228.209 518.077 225.288C518.077 222.368 515.709 220 512.788 220C509.868 220 507.5 222.368 507.5 225.288C507.5 228.209 509.868 230.577 512.788 230.577Z" fill="#100A42"/>
<path d="M540.288 230.577C543.209 230.577 545.577 228.209 545.577 225.288C545.577 222.368 543.209 220 540.288 220C537.368 220 535 222.368 535 225.288C535 228.209 537.368 230.577 540.288 230.577Z" fill="#100A42"/>
<path d="M567.788 230.577C570.709 230.577 573.077 228.209 573.077 225.288C573.077 222.368 570.709 220 567.788 220C564.868 220 562.5 222.368 562.5 225.288C562.5 228.209 564.868 230.577 567.788 230.577Z" fill="#100A42"/>
<path d="M595.288 230.577C598.209 230.577 600.577 228.209 600.577 225.288C600.577 222.368 598.209 220 595.288 220C592.368 220 590 222.368 590 225.288C590 228.209 592.368 230.577 595.288 230.577Z" fill="#100A42"/>
<path d="M622.788 230.577C625.709 230.577 628.077 228.209 628.077 225.288C628.077 222.368 625.709 220 622.788 220C619.868 220 617.5 222.368 617.5 225.288C617.5 228.209 619.868 230.577 622.788 230.577Z" fill="#100A42"/>
<path d="M650.288 230.577C653.209 230.577 655.577 228.209 655.577 225.288C655.577 222.368 653.209 220 650.288 220C647.368 220 645 222.368 645 225.288C645 228.209 647.368 230.577 650.288 230.577Z" fill="#100A42"/>
<path d="M677.788 230.577C680.709 230.577 683.077 228.209 683.077 225.288C683.077 222.368 680.709 220 677.788 220C674.868 220 672.5 222.368 672.5 225.288C672.5 228.209 674.868 230.577 677.788 230.577Z" fill="#100A42"/>
<path d="M705.288 230.577C708.209 230.577 710.577 228.209 710.577 225.288C710.577 222.368 708.209 220 705.288 220C702.368 220 700 222.368 700 225.288C700 228.209 702.368 230.577 705.288 230.577Z" fill="#100A42"/>
<path d="M402.788 258.077C405.709 258.077 408.077 255.709 408.077 252.788C408.077 249.868 405.709 247.5 402.788 247.5C399.868 247.5 397.5 249.868 397.5 252.788C397.5 255.709 399.868 258.077 402.788 258.077Z" fill="#100A42"/>
<path d="M430.288 258.077C433.209 258.077 435.577 255.709 435.577 252.788C435.577 249.868 433.209 247.5 430.288 247.5C427.368 247.5 425 249.868 425 252.788C425 255.709 427.368 258.077 430.288 258.077Z" fill="#100A42"/>
<path d="M457.788 258.077C460.709 258.077 463.077 255.709 463.077 252.788C463.077 249.868 460.709 247.5 457.788 247.5C454.868 247.5 452.5 249.868 452.5 252.788C452.5 255.709 454.868 258.077 457.788 258.077Z" fill="#100A42"/>
<path d="M485.288 258.077C488.209 258.077 490.577 255.709 490.577 252.788C490.577 249.868 488.209 247.5 485.288 247.5C482.368 247.5 480 249.868 480 252.788C480 255.709 482.368 258.077 485.288 258.077Z" fill="#100A42"/>
<path d="M512.788 258.077C515.709 258.077 518.077 255.709 518.077 252.788C518.077 249.868 515.709 247.5 512.788 247.5C509.868 247.5 507.5 249.868 507.5 252.788C507.5 255.709 509.868 258.077 512.788 258.077Z" fill="#100A42"/>
<path d="M540.288 258.077C543.209 258.077 545.577 255.709 545.577 252.788C545.577 249.868 543.209 247.5 540.288 247.5C537.368 247.5 535 249.868 535 252.788C535 255.709 537.368 258.077 540.288 258.077Z" fill="#100A42"/>
<path d="M567.788 258.077C570.709 258.077 573.077 255.709 573.077 252.788C573.077 249.868 570.709 247.5 567.788 247.5C564.868 247.5 562.5 249.868 562.5 252.788C562.5 255.709 564.868 258.077 567.788 258.077Z" fill="#100A42"/>
<path d="M595.288 258.077C598.209 258.077 600.577 255.709 600.577 252.788C600.577 249.868 598.209 247.5 595.288 247.5C592.368 247.5 590 249.868 590 252.788C590 255.709 592.368 258.077 595.288 258.077Z" fill="#100A42"/>
<path d="M622.788 258.077C625.709 258.077 628.077 255.709 628.077 252.788C628.077 249.868 625.709 247.5 622.788 247.5C619.868 247.5 617.5 249.868 617.5 252.788C617.5 255.709 619.868 258.077 622.788 258.077Z" fill="#100A42"/>
<path d="M650.288 258.077C653.209 258.077 655.577 255.709 655.577 252.788C655.577 249.868 653.209 247.5 650.288 247.5C647.368 247.5 645 249.868 645 252.788C645 255.709 647.368 258.077 650.288 258.077Z" fill="#100A42"/>
<path d="M677.788 258.077C680.709 258.077 683.077 255.709 683.077 252.788C683.077 249.868 680.709 247.5 677.788 247.5C674.868 247.5 672.5 249.868 672.5 252.788C672.5 255.709 674.868 258.077 677.788 258.077Z" fill="#100A42"/>
<path d="M705.288 258.077C708.209 258.077 710.577 255.709 710.577 252.788C710.577 249.868 708.209 247.5 705.288 247.5C702.368 247.5 700 249.868 700 252.788C700 255.709 702.368 258.077 705.288 258.077Z" fill="#100A42"/>
<path d="M402.788 285.577C405.709 285.577 408.077 283.209 408.077 280.288C408.077 277.368 405.709 275 402.788 275C399.868 275 397.5 277.368 397.5 280.288C397.5 283.209 399.868 285.577 402.788 285.577Z" fill="#100A42"/>
<path d="M430.288 285.577C433.209 285.577 435.577 283.209 435.577 280.288C435.577 277.368 433.209 275 430.288 275C427.368 275 425 277.368 425 280.288C425 283.209 427.368 285.577 430.288 285.577Z" fill="#100A42"/>
<path d="M457.788 285.577C460.709 285.577 463.077 283.209 463.077 280.288C463.077 277.368 460.709 275 457.788 275C454.868 275 452.5 277.368 452.5 280.288C452.5 283.209 454.868 285.577 457.788 285.577Z" fill="#100A42"/>
<path d="M485.288 285.577C488.209 285.577 490.577 283.209 490.577 280.288C490.577 277.368 488.209 275 485.288 275C482.368 275 480 277.368 480 280.288C480 283.209 482.368 285.577 485.288 285.577Z" fill="#100A42"/>
<path d="M512.788 285.577C515.709 285.577 518.077 283.209 518.077 280.288C518.077 277.368 515.709 275 512.788 275C509.868 275 507.5 277.368 507.5 280.288C507.5 283.209 509.868 285.577 512.788 285.577Z" fill="#100A42"/>
<path d="M540.288 285.577C543.209 285.577 545.577 283.209 545.577 280.288C545.577 277.368 543.209 275 540.288 275C537.368 275 535 277.368 535 280.288C535 283.209 537.368 285.577 540.288 285.577Z" fill="#100A42"/>
<path d="M567.788 285.577C570.709 285.577 573.077 283.209 573.077 280.288C573.077 277.368 570.709 275 567.788 275C564.868 275 562.5 277.368 562.5 280.288C562.5 283.209 564.868 285.577 567.788 285.577Z" fill="#100A42"/>
<path d="M595.288 285.577C598.209 285.577 600.577 283.209 600.577 280.288C600.577 277.368 598.209 275 595.288 275C592.368 275 590 277.368 590 280.288C590 283.209 592.368 285.577 595.288 285.577Z" fill="#100A42"/>
<path d="M622.788 285.577C625.709 285.577 628.077 283.209 628.077 280.288C628.077 277.368 625.709 275 622.788 275C619.868 275 617.5 277.368 617.5 280.288C617.5 283.209 619.868 285.577 622.788 285.577Z" fill="#100A42"/>
<path d="M650.288 285.577C653.209 285.577 655.577 283.209 655.577 280.288C655.577 277.368 653.209 275 650.288 275C647.368 275 645 277.368 645 280.288C645 283.209 647.368 285.577 650.288 285.577Z" fill="#100A42"/>
<path d="M677.788 285.577C680.709 285.577 683.077 283.209 683.077 280.288C683.077 277.368 680.709 275 677.788 275C674.868 275 672.5 277.368 672.5 280.288C672.5 283.209 674.868 285.577 677.788 285.577Z" fill="#100A42"/>
<path d="M705.288 285.577C708.209 285.577 710.577 283.209 710.577 280.288C710.577 277.368 708.209 275 705.288 275C702.368 275 700 277.368 700 280.288C700 283.209 702.368 285.577 705.288 285.577Z" fill="#100A42"/>
<path d="M402.788 313.077C405.709 313.077 408.077 310.709 408.077 307.788C408.077 304.868 405.709 302.5 402.788 302.5C399.868 302.5 397.5 304.868 397.5 307.788C397.5 310.709 399.868 313.077 402.788 313.077Z" fill="#100A42"/>
<path d="M430.288 313.077C433.209 313.077 435.577 310.709 435.577 307.788C435.577 304.868 433.209 302.5 430.288 302.5C427.368 302.5 425 304.868 425 307.788C425 310.709 427.368 313.077 430.288 313.077Z" fill="#100A42"/>
<path d="M457.788 313.077C460.709 313.077 463.077 310.709 463.077 307.788C463.077 304.868 460.709 302.5 457.788 302.5C454.868 302.5 452.5 304.868 452.5 307.788C452.5 310.709 454.868 313.077 457.788 313.077Z" fill="#100A42"/>
<path d="M485.288 313.077C488.209 313.077 490.577 310.709 490.577 307.788C490.577 304.868 488.209 302.5 485.288 302.5C482.368 302.5 480 304.868 480 307.788C480 310.709 482.368 313.077 485.288 313.077Z" fill="#100A42"/>
<path d="M512.788 313.077C515.709 313.077 518.077 310.709 518.077 307.788C518.077 304.868 515.709 302.5 512.788 302.5C509.868 302.5 507.5 304.868 507.5 307.788C507.5 310.709 509.868 313.077 512.788 313.077Z" fill="#100A42"/>
<path d="M540.288 313.077C543.209 313.077 545.577 310.709 545.577 307.788C545.577 304.868 543.209 302.5 540.288 302.5C537.368 302.5 535 304.868 535 307.788C535 310.709 537.368 313.077 540.288 313.077Z" fill="#100A42"/>
<path d="M567.788 313.077C570.709 313.077 573.077 310.709 573.077 307.788C573.077 304.868 570.709 302.5 567.788 302.5C564.868 302.5 562.5 304.868 562.5 307.788C562.5 310.709 564.868 313.077 567.788 313.077Z" fill="#100A42"/>
<path d="M595.288 313.077C598.209 313.077 600.577 310.709 600.577 307.788C600.577 304.868 598.209 302.5 595.288 302.5C592.368 302.5 590 304.868 590 307.788C590 310.709 592.368 313.077 595.288 313.077Z" fill="#100A42"/>
<path d="M622.788 313.077C625.709 313.077 628.077 310.709 628.077 307.788C628.077 304.868 625.709 302.5 622.788 302.5C619.868 302.5 617.5 304.868 617.5 307.788C617.5 310.709 619.868 313.077 622.788 313.077Z" fill="#100A42"/>
<path d="M650.288 313.077C653.209 313.077 655.577 310.709 655.577 307.788C655.577 304.868 653.209 302.5 650.288 302.5C647.368 302.5 645 304.868 645 307.788C645 310.709 647.368 313.077 650.288 313.077Z" fill="#100A42"/>
<path d="M677.788 313.077C680.709 313.077 683.077 310.709 683.077 307.788C683.077 304.868 680.709 302.5 677.788 302.5C674.868 302.5 672.5 304.868 672.5 307.788C672.5 310.709 674.868 313.077 677.788 313.077Z" fill="#100A42"/>
<path d="M705.288 313.077C708.209 313.077 710.577 310.709 710.577 307.788C710.577 304.868 708.209 302.5 705.288 302.5C702.368 302.5 700 304.868 700 307.788C700 310.709 702.368 313.077 705.288 313.077Z" fill="#100A42"/>
</g>
<g opacity="0.5" clip-path="url(#clip1_1211_1246)">
<path d="M5.78846 291.577C8.7092 291.577 11.0769 289.209 11.0769 286.288C11.0769 283.368 8.7092 281 5.78846 281C2.86772 281 0.5 283.368 0.5 286.288C0.5 289.209 2.86772 291.577 5.78846 291.577Z" fill="#BAF6EB"/>
<path d="M33.2885 291.577C36.2092 291.577 38.5769 289.209 38.5769 286.288C38.5769 283.368 36.2092 281 33.2885 281C30.3677 281 28 283.368 28 286.288C28 289.209 30.3677 291.577 33.2885 291.577Z" fill="#BAF6EB"/>
<path d="M60.7885 291.577C63.7092 291.577 66.0769 289.209 66.0769 286.288C66.0769 283.368 63.7092 281 60.7885 281C57.8677 281 55.5 283.368 55.5 286.288C55.5 289.209 57.8677 291.577 60.7885 291.577Z" fill="#BAF6EB"/>
<path d="M88.2885 291.577C91.2092 291.577 93.5769 289.209 93.5769 286.288C93.5769 283.368 91.2092 281 88.2885 281C85.3677 281 83 283.368 83 286.288C83 289.209 85.3677 291.577 88.2885 291.577Z" fill="#BAF6EB"/>
<path d="M115.788 291.577C118.709 291.577 121.077 289.209 121.077 286.288C121.077 283.368 118.709 281 115.788 281C112.868 281 110.5 283.368 110.5 286.288C110.5 289.209 112.868 291.577 115.788 291.577Z" fill="#BAF6EB"/>
<path d="M143.288 291.577C146.209 291.577 148.577 289.209 148.577 286.288C148.577 283.368 146.209 281 143.288 281C140.368 281 138 283.368 138 286.288C138 289.209 140.368 291.577 143.288 291.577Z" fill="#BAF6EB"/>
<path d="M170.788 291.577C173.709 291.577 176.077 289.209 176.077 286.288C176.077 283.368 173.709 281 170.788 281C167.868 281 165.5 283.368 165.5 286.288C165.5 289.209 167.868 291.577 170.788 291.577Z" fill="#BAF6EB"/>
<path d="M198.288 291.577C201.209 291.577 203.577 289.209 203.577 286.288C203.577 283.368 201.209 281 198.288 281C195.368 281 193 283.368 193 286.288C193 289.209 195.368 291.577 198.288 291.577Z" fill="#BAF6EB"/>
<path d="M225.788 291.577C228.709 291.577 231.077 289.209 231.077 286.288C231.077 283.368 228.709 281 225.788 281C222.868 281 220.5 283.368 220.5 286.288C220.5 289.209 222.868 291.577 225.788 291.577Z" fill="#BAF6EB"/>
<path d="M253.288 291.577C256.209 291.577 258.577 289.209 258.577 286.288C258.577 283.368 256.209 281 253.288 281C250.368 281 248 283.368 248 286.288C248 289.209 250.368 291.577 253.288 291.577Z" fill="#BAF6EB"/>
<path d="M280.788 291.577C283.709 291.577 286.077 289.209 286.077 286.288C286.077 283.368 283.709 281 280.788 281C277.868 281 275.5 283.368 275.5 286.288C275.5 289.209 277.868 291.577 280.788 291.577Z" fill="#BAF6EB"/>
<path d="M308.288 291.577C311.209 291.577 313.577 289.209 313.577 286.288C313.577 283.368 311.209 281 308.288 281C305.368 281 303 283.368 303 286.288C303 289.209 305.368 291.577 308.288 291.577Z" fill="#BAF6EB"/>
<path d="M5.78846 319.077C8.7092 319.077 11.0769 316.709 11.0769 313.788C11.0769 310.868 8.7092 308.5 5.78846 308.5C2.86772 308.5 0.5 310.868 0.5 313.788C0.5 316.709 2.86772 319.077 5.78846 319.077Z" fill="#BAF6EB"/>
<path d="M33.2885 319.077C36.2092 319.077 38.5769 316.709 38.5769 313.788C38.5769 310.868 36.2092 308.5 33.2885 308.5C30.3677 308.5 28 310.868 28 313.788C28 316.709 30.3677 319.077 33.2885 319.077Z" fill="#BAF6EB"/>
<path d="M60.7885 319.077C63.7092 319.077 66.0769 316.709 66.0769 313.788C66.0769 310.868 63.7092 308.5 60.7885 308.5C57.8677 308.5 55.5 310.868 55.5 313.788C55.5 316.709 57.8677 319.077 60.7885 319.077Z" fill="#BAF6EB"/>
<path d="M88.2885 319.077C91.2092 319.077 93.5769 316.709 93.5769 313.788C93.5769 310.868 91.2092 308.5 88.2885 308.5C85.3677 308.5 83 310.868 83 313.788C83 316.709 85.3677 319.077 88.2885 319.077Z" fill="#BAF6EB"/>
<path d="M115.788 319.077C118.709 319.077 121.077 316.709 121.077 313.788C121.077 310.868 118.709 308.5 115.788 308.5C112.868 308.5 110.5 310.868 110.5 313.788C110.5 316.709 112.868 319.077 115.788 319.077Z" fill="#BAF6EB"/>
<path d="M143.288 319.077C146.209 319.077 148.577 316.709 148.577 313.788C148.577 310.868 146.209 308.5 143.288 308.5C140.368 308.5 138 310.868 138 313.788C138 316.709 140.368 319.077 143.288 319.077Z" fill="#BAF6EB"/>
<path d="M170.788 319.077C173.709 319.077 176.077 316.709 176.077 313.788C176.077 310.868 173.709 308.5 170.788 308.5C167.868 308.5 165.5 310.868 165.5 313.788C165.5 316.709 167.868 319.077 170.788 319.077Z" fill="#BAF6EB"/>
<path d="M198.288 319.077C201.209 319.077 203.577 316.709 203.577 313.788C203.577 310.868 201.209 308.5 198.288 308.5C195.368 308.5 193 310.868 193 313.788C193 316.709 195.368 319.077 198.288 319.077Z" fill="#BAF6EB"/>
<path d="M225.788 319.077C228.709 319.077 231.077 316.709 231.077 313.788C231.077 310.868 228.709 308.5 225.788 308.5C222.868 308.5 220.5 310.868 220.5 313.788C220.5 316.709 222.868 319.077 225.788 319.077Z" fill="#BAF6EB"/>
<path d="M253.288 319.077C256.209 319.077 258.577 316.709 258.577 313.788C258.577 310.868 256.209 308.5 253.288 308.5C250.368 308.5 248 310.868 248 313.788C248 316.709 250.368 319.077 253.288 319.077Z" fill="#BAF6EB"/>
<path d="M280.788 319.077C283.709 319.077 286.077 316.709 286.077 313.788C286.077 310.868 283.709 308.5 280.788 308.5C277.868 308.5 275.5 310.868 275.5 313.788C275.5 316.709 277.868 319.077 280.788 319.077Z" fill="#BAF6EB"/>
<path d="M308.288 319.077C311.209 319.077 313.577 316.709 313.577 313.788C313.577 310.868 311.209 308.5 308.288 308.5C305.368 308.5 303 310.868 303 313.788C303 316.709 305.368 319.077 308.288 319.077Z" fill="#BAF6EB"/>
<path d="M5.78846 346.577C8.7092 346.577 11.0769 344.209 11.0769 341.288C11.0769 338.368 8.7092 336 5.78846 336C2.86772 336 0.5 338.368 0.5 341.288C0.5 344.209 2.86772 346.577 5.78846 346.577Z" fill="#BAF6EB"/>
<path d="M33.2885 346.577C36.2092 346.577 38.5769 344.209 38.5769 341.288C38.5769 338.368 36.2092 336 33.2885 336C30.3677 336 28 338.368 28 341.288C28 344.209 30.3677 346.577 33.2885 346.577Z" fill="#BAF6EB"/>
<path d="M60.7885 346.577C63.7092 346.577 66.0769 344.209 66.0769 341.288C66.0769 338.368 63.7092 336 60.7885 336C57.8677 336 55.5 338.368 55.5 341.288C55.5 344.209 57.8677 346.577 60.7885 346.577Z" fill="#BAF6EB"/>
<path d="M88.2885 346.577C91.2092 346.577 93.5769 344.209 93.5769 341.288C93.5769 338.368 91.2092 336 88.2885 336C85.3677 336 83 338.368 83 341.288C83 344.209 85.3677 346.577 88.2885 346.577Z" fill="#BAF6EB"/>
<path d="M115.788 346.577C118.709 346.577 121.077 344.209 121.077 341.288C121.077 338.368 118.709 336 115.788 336C112.868 336 110.5 338.368 110.5 341.288C110.5 344.209 112.868 346.577 115.788 346.577Z" fill="#BAF6EB"/>
<path d="M143.288 346.577C146.209 346.577 148.577 344.209 148.577 341.288C148.577 338.368 146.209 336 143.288 336C140.368 336 138 338.368 138 341.288C138 344.209 140.368 346.577 143.288 346.577Z" fill="#BAF6EB"/>
<path d="M170.788 346.577C173.709 346.577 176.077 344.209 176.077 341.288C176.077 338.368 173.709 336 170.788 336C167.868 336 165.5 338.368 165.5 341.288C165.5 344.209 167.868 346.577 170.788 346.577Z" fill="#BAF6EB"/>
<path d="M198.288 346.577C201.209 346.577 203.577 344.209 203.577 341.288C203.577 338.368 201.209 336 198.288 336C195.368 336 193 338.368 193 341.288C193 344.209 195.368 346.577 198.288 346.577Z" fill="#BAF6EB"/>
<path d="M225.788 346.577C228.709 346.577 231.077 344.209 231.077 341.288C231.077 338.368 228.709 336 225.788 336C222.868 336 220.5 338.368 220.5 341.288C220.5 344.209 222.868 346.577 225.788 346.577Z" fill="#BAF6EB"/>
<path d="M253.288 346.577C256.209 346.577 258.577 344.209 258.577 341.288C258.577 338.368 256.209 336 253.288 336C250.368 336 248 338.368 248 341.288C248 344.209 250.368 346.577 253.288 346.577Z" fill="#BAF6EB"/>
<path d="M280.788 346.577C283.709 346.577 286.077 344.209 286.077 341.288C286.077 338.368 283.709 336 280.788 336C277.868 336 275.5 338.368 275.5 341.288C275.5 344.209 277.868 346.577 280.788 346.577Z" fill="#BAF6EB"/>
<path d="M308.288 346.577C311.209 346.577 313.577 344.209 313.577 341.288C313.577 338.368 311.209 336 308.288 336C305.368 336 303 338.368 303 341.288C303 344.209 305.368 346.577 308.288 346.577Z" fill="#BAF6EB"/>
<path d="M5.78846 374.077C8.7092 374.077 11.0769 371.709 11.0769 368.788C11.0769 365.868 8.7092 363.5 5.78846 363.5C2.86772 363.5 0.5 365.868 0.5 368.788C0.5 371.709 2.86772 374.077 5.78846 374.077Z" fill="#BAF6EB"/>
<path d="M33.2885 374.077C36.2092 374.077 38.5769 371.709 38.5769 368.788C38.5769 365.868 36.2092 363.5 33.2885 363.5C30.3677 363.5 28 365.868 28 368.788C28 371.709 30.3677 374.077 33.2885 374.077Z" fill="#BAF6EB"/>
<path d="M60.7885 374.077C63.7092 374.077 66.0769 371.709 66.0769 368.788C66.0769 365.868 63.7092 363.5 60.7885 363.5C57.8677 363.5 55.5 365.868 55.5 368.788C55.5 371.709 57.8677 374.077 60.7885 374.077Z" fill="#BAF6EB"/>
<path d="M88.2885 374.077C91.2092 374.077 93.5769 371.709 93.5769 368.788C93.5769 365.868 91.2092 363.5 88.2885 363.5C85.3677 363.5 83 365.868 83 368.788C83 371.709 85.3677 374.077 88.2885 374.077Z" fill="#BAF6EB"/>
<path d="M115.788 374.077C118.709 374.077 121.077 371.709 121.077 368.788C121.077 365.868 118.709 363.5 115.788 363.5C112.868 363.5 110.5 365.868 110.5 368.788C110.5 371.709 112.868 374.077 115.788 374.077Z" fill="#BAF6EB"/>
<path d="M143.288 374.077C146.209 374.077 148.577 371.709 148.577 368.788C148.577 365.868 146.209 363.5 143.288 363.5C140.368 363.5 138 365.868 138 368.788C138 371.709 140.368 374.077 143.288 374.077Z" fill="#BAF6EB"/>
<path d="M170.788 374.077C173.709 374.077 176.077 371.709 176.077 368.788C176.077 365.868 173.709 363.5 170.788 363.5C167.868 363.5 165.5 365.868 165.5 368.788C165.5 371.709 167.868 374.077 170.788 374.077Z" fill="#BAF6EB"/>
<path d="M198.288 374.077C201.209 374.077 203.577 371.709 203.577 368.788C203.577 365.868 201.209 363.5 198.288 363.5C195.368 363.5 193 365.868 193 368.788C193 371.709 195.368 374.077 198.288 374.077Z" fill="#BAF6EB"/>
<path d="M225.788 374.077C228.709 374.077 231.077 371.709 231.077 368.788C231.077 365.868 228.709 363.5 225.788 363.5C222.868 363.5 220.5 365.868 220.5 368.788C220.5 371.709 222.868 374.077 225.788 374.077Z" fill="#BAF6EB"/>
<path d="M253.288 374.077C256.209 374.077 258.577 371.709 258.577 368.788C258.577 365.868 256.209 363.5 253.288 363.5C250.368 363.5 248 365.868 248 368.788C248 371.709 250.368 374.077 253.288 374.077Z" fill="#BAF6EB"/>
<path d="M280.788 374.077C283.709 374.077 286.077 371.709 286.077 368.788C286.077 365.868 283.709 363.5 280.788 363.5C277.868 363.5 275.5 365.868 275.5 368.788C275.5 371.709 277.868 374.077 280.788 374.077Z" fill="#BAF6EB"/>
<path d="M308.288 374.077C311.209 374.077 313.577 371.709 313.577 368.788C313.577 365.868 311.209 363.5 308.288 363.5C305.368 363.5 303 365.868 303 368.788C303 371.709 305.368 374.077 308.288 374.077Z" fill="#BAF6EB"/>
<path d="M5.78846 401.577C8.7092 401.577 11.0769 399.209 11.0769 396.288C11.0769 393.368 8.7092 391 5.78846 391C2.86772 391 0.5 393.368 0.5 396.288C0.5 399.209 2.86772 401.577 5.78846 401.577Z" fill="#BAF6EB"/>
<path d="M33.2885 401.577C36.2092 401.577 38.5769 399.209 38.5769 396.288C38.5769 393.368 36.2092 391 33.2885 391C30.3677 391 28 393.368 28 396.288C28 399.209 30.3677 401.577 33.2885 401.577Z" fill="#BAF6EB"/>
<path d="M60.7885 401.577C63.7092 401.577 66.0769 399.209 66.0769 396.288C66.0769 393.368 63.7092 391 60.7885 391C57.8677 391 55.5 393.368 55.5 396.288C55.5 399.209 57.8677 401.577 60.7885 401.577Z" fill="#BAF6EB"/>
<path d="M88.2885 401.577C91.2092 401.577 93.5769 399.209 93.5769 396.288C93.5769 393.368 91.2092 391 88.2885 391C85.3677 391 83 393.368 83 396.288C83 399.209 85.3677 401.577 88.2885 401.577Z" fill="#BAF6EB"/>
<path d="M115.788 401.577C118.709 401.577 121.077 399.209 121.077 396.288C121.077 393.368 118.709 391 115.788 391C112.868 391 110.5 393.368 110.5 396.288C110.5 399.209 112.868 401.577 115.788 401.577Z" fill="#BAF6EB"/>
<path d="M143.288 401.577C146.209 401.577 148.577 399.209 148.577 396.288C148.577 393.368 146.209 391 143.288 391C140.368 391 138 393.368 138 396.288C138 399.209 140.368 401.577 143.288 401.577Z" fill="#BAF6EB"/>
<path d="M170.788 401.577C173.709 401.577 176.077 399.209 176.077 396.288C176.077 393.368 173.709 391 170.788 391C167.868 391 165.5 393.368 165.5 396.288C165.5 399.209 167.868 401.577 170.788 401.577Z" fill="#BAF6EB"/>
<path d="M198.288 401.577C201.209 401.577 203.577 399.209 203.577 396.288C203.577 393.368 201.209 391 198.288 391C195.368 391 193 393.368 193 396.288C193 399.209 195.368 401.577 198.288 401.577Z" fill="#BAF6EB"/>
<path d="M225.788 401.577C228.709 401.577 231.077 399.209 231.077 396.288C231.077 393.368 228.709 391 225.788 391C222.868 391 220.5 393.368 220.5 396.288C220.5 399.209 222.868 401.577 225.788 401.577Z" fill="#BAF6EB"/>
<path d="M253.288 401.577C256.209 401.577 258.577 399.209 258.577 396.288C258.577 393.368 256.209 391 253.288 391C250.368 391 248 393.368 248 396.288C248 399.209 250.368 401.577 253.288 401.577Z" fill="#BAF6EB"/>
<path d="M280.788 401.577C283.709 401.577 286.077 399.209 286.077 396.288C286.077 393.368 283.709 391 280.788 391C277.868 391 275.5 393.368 275.5 396.288C275.5 399.209 277.868 401.577 280.788 401.577Z" fill="#BAF6EB"/>
<path d="M308.288 401.577C311.209 401.577 313.577 399.209 313.577 396.288C313.577 393.368 311.209 391 308.288 391C305.368 391 303 393.368 303 396.288C303 399.209 305.368 401.577 308.288 401.577Z" fill="#BAF6EB"/>
<path d="M5.78846 429.077C8.7092 429.077 11.0769 426.709 11.0769 423.788C11.0769 420.868 8.7092 418.5 5.78846 418.5C2.86772 418.5 0.5 420.868 0.5 423.788C0.5 426.709 2.86772 429.077 5.78846 429.077Z" fill="#BAF6EB"/>
<path d="M33.2885 429.077C36.2092 429.077 38.5769 426.709 38.5769 423.788C38.5769 420.868 36.2092 418.5 33.2885 418.5C30.3677 418.5 28 420.868 28 423.788C28 426.709 30.3677 429.077 33.2885 429.077Z" fill="#BAF6EB"/>
<path d="M60.7885 429.077C63.7092 429.077 66.0769 426.709 66.0769 423.788C66.0769 420.868 63.7092 418.5 60.7885 418.5C57.8677 418.5 55.5 420.868 55.5 423.788C55.5 426.709 57.8677 429.077 60.7885 429.077Z" fill="#BAF6EB"/>
<path d="M88.2885 429.077C91.2092 429.077 93.5769 426.709 93.5769 423.788C93.5769 420.868 91.2092 418.5 88.2885 418.5C85.3677 418.5 83 420.868 83 423.788C83 426.709 85.3677 429.077 88.2885 429.077Z" fill="#BAF6EB"/>
<path d="M115.788 429.077C118.709 429.077 121.077 426.709 121.077 423.788C121.077 420.868 118.709 418.5 115.788 418.5C112.868 418.5 110.5 420.868 110.5 423.788C110.5 426.709 112.868 429.077 115.788 429.077Z" fill="#BAF6EB"/>
<path d="M143.288 429.077C146.209 429.077 148.577 426.709 148.577 423.788C148.577 420.868 146.209 418.5 143.288 418.5C140.368 418.5 138 420.868 138 423.788C138 426.709 140.368 429.077 143.288 429.077Z" fill="#BAF6EB"/>
<path d="M170.788 429.077C173.709 429.077 176.077 426.709 176.077 423.788C176.077 420.868 173.709 418.5 170.788 418.5C167.868 418.5 165.5 420.868 165.5 423.788C165.5 426.709 167.868 429.077 170.788 429.077Z" fill="#BAF6EB"/>
<path d="M198.288 429.077C201.209 429.077 203.577 426.709 203.577 423.788C203.577 420.868 201.209 418.5 198.288 418.5C195.368 418.5 193 420.868 193 423.788C193 426.709 195.368 429.077 198.288 429.077Z" fill="#BAF6EB"/>
<path d="M225.788 429.077C228.709 429.077 231.077 426.709 231.077 423.788C231.077 420.868 228.709 418.5 225.788 418.5C222.868 418.5 220.5 420.868 220.5 423.788C220.5 426.709 222.868 429.077 225.788 429.077Z" fill="#BAF6EB"/>
<path d="M253.288 429.077C256.209 429.077 258.577 426.709 258.577 423.788C258.577 420.868 256.209 418.5 253.288 418.5C250.368 418.5 248 420.868 248 423.788C248 426.709 250.368 429.077 253.288 429.077Z" fill="#BAF6EB"/>
<path d="M280.788 429.077C283.709 429.077 286.077 426.709 286.077 423.788C286.077 420.868 283.709 418.5 280.788 418.5C277.868 418.5 275.5 420.868 275.5 423.788C275.5 426.709 277.868 429.077 280.788 429.077Z" fill="#BAF6EB"/>
<path d="M308.288 429.077C311.209 429.077 313.577 426.709 313.577 423.788C313.577 420.868 311.209 418.5 308.288 418.5C305.368 418.5 303 420.868 303 423.788C303 426.709 305.368 429.077 308.288 429.077Z" fill="#BAF6EB"/>
<path d="M5.78846 456.577C8.7092 456.577 11.0769 454.209 11.0769 451.288C11.0769 448.368 8.7092 446 5.78846 446C2.86772 446 0.5 448.368 0.5 451.288C0.5 454.209 2.86772 456.577 5.78846 456.577Z" fill="#BAF6EB"/>
<path d="M33.2885 456.577C36.2092 456.577 38.5769 454.209 38.5769 451.288C38.5769 448.368 36.2092 446 33.2885 446C30.3677 446 28 448.368 28 451.288C28 454.209 30.3677 456.577 33.2885 456.577Z" fill="#BAF6EB"/>
<path d="M60.7885 456.577C63.7092 456.577 66.0769 454.209 66.0769 451.288C66.0769 448.368 63.7092 446 60.7885 446C57.8677 446 55.5 448.368 55.5 451.288C55.5 454.209 57.8677 456.577 60.7885 456.577Z" fill="#BAF6EB"/>
<path d="M88.2885 456.577C91.2092 456.577 93.5769 454.209 93.5769 451.288C93.5769 448.368 91.2092 446 88.2885 446C85.3677 446 83 448.368 83 451.288C83 454.209 85.3677 456.577 88.2885 456.577Z" fill="#BAF6EB"/>
<path d="M115.788 456.577C118.709 456.577 121.077 454.209 121.077 451.288C121.077 448.368 118.709 446 115.788 446C112.868 446 110.5 448.368 110.5 451.288C110.5 454.209 112.868 456.577 115.788 456.577Z" fill="#BAF6EB"/>
<path d="M143.288 456.577C146.209 456.577 148.577 454.209 148.577 451.288C148.577 448.368 146.209 446 143.288 446C140.368 446 138 448.368 138 451.288C138 454.209 140.368 456.577 143.288 456.577Z" fill="#BAF6EB"/>
<path d="M170.788 456.577C173.709 456.577 176.077 454.209 176.077 451.288C176.077 448.368 173.709 446 170.788 446C167.868 446 165.5 448.368 165.5 451.288C165.5 454.209 167.868 456.577 170.788 456.577Z" fill="#BAF6EB"/>
<path d="M198.288 456.577C201.209 456.577 203.577 454.209 203.577 451.288C203.577 448.368 201.209 446 198.288 446C195.368 446 193 448.368 193 451.288C193 454.209 195.368 456.577 198.288 456.577Z" fill="#BAF6EB"/>
<path d="M225.788 456.577C228.709 456.577 231.077 454.209 231.077 451.288C231.077 448.368 228.709 446 225.788 446C222.868 446 220.5 448.368 220.5 451.288C220.5 454.209 222.868 456.577 225.788 456.577Z" fill="#BAF6EB"/>
<path d="M253.288 456.577C256.209 456.577 258.577 454.209 258.577 451.288C258.577 448.368 256.209 446 253.288 446C250.368 446 248 448.368 248 451.288C248 454.209 250.368 456.577 253.288 456.577Z" fill="#BAF6EB"/>
<path d="M280.788 456.577C283.709 456.577 286.077 454.209 286.077 451.288C286.077 448.368 283.709 446 280.788 446C277.868 446 275.5 448.368 275.5 451.288C275.5 454.209 277.868 456.577 280.788 456.577Z" fill="#BAF6EB"/>
<path d="M308.288 456.577C311.209 456.577 313.577 454.209 313.577 451.288C313.577 448.368 311.209 446 308.288 446C305.368 446 303 448.368 303 451.288C303 454.209 305.368 456.577 308.288 456.577Z" fill="#BAF6EB"/>
<path d="M5.78846 484.077C8.7092 484.077 11.0769 481.709 11.0769 478.788C11.0769 475.868 8.7092 473.5 5.78846 473.5C2.86772 473.5 0.5 475.868 0.5 478.788C0.5 481.709 2.86772 484.077 5.78846 484.077Z" fill="#BAF6EB"/>
<path d="M33.2885 484.077C36.2092 484.077 38.5769 481.709 38.5769 478.788C38.5769 475.868 36.2092 473.5 33.2885 473.5C30.3677 473.5 28 475.868 28 478.788C28 481.709 30.3677 484.077 33.2885 484.077Z" fill="#BAF6EB"/>
<path d="M60.7885 484.077C63.7092 484.077 66.0769 481.709 66.0769 478.788C66.0769 475.868 63.7092 473.5 60.7885 473.5C57.8677 473.5 55.5 475.868 55.5 478.788C55.5 481.709 57.8677 484.077 60.7885 484.077Z" fill="#BAF6EB"/>
<path d="M88.2885 484.077C91.2092 484.077 93.5769 481.709 93.5769 478.788C93.5769 475.868 91.2092 473.5 88.2885 473.5C85.3677 473.5 83 475.868 83 478.788C83 481.709 85.3677 484.077 88.2885 484.077Z" fill="#BAF6EB"/>
<path d="M115.788 484.077C118.709 484.077 121.077 481.709 121.077 478.788C121.077 475.868 118.709 473.5 115.788 473.5C112.868 473.5 110.5 475.868 110.5 478.788C110.5 481.709 112.868 484.077 115.788 484.077Z" fill="#BAF6EB"/>
<path d="M143.288 484.077C146.209 484.077 148.577 481.709 148.577 478.788C148.577 475.868 146.209 473.5 143.288 473.5C140.368 473.5 138 475.868 138 478.788C138 481.709 140.368 484.077 143.288 484.077Z" fill="#BAF6EB"/>
<path d="M170.788 484.077C173.709 484.077 176.077 481.709 176.077 478.788C176.077 475.868 173.709 473.5 170.788 473.5C167.868 473.5 165.5 475.868 165.5 478.788C165.5 481.709 167.868 484.077 170.788 484.077Z" fill="#BAF6EB"/>
<path d="M198.288 484.077C201.209 484.077 203.577 481.709 203.577 478.788C203.577 475.868 201.209 473.5 198.288 473.5C195.368 473.5 193 475.868 193 478.788C193 481.709 195.368 484.077 198.288 484.077Z" fill="#BAF6EB"/>
<path d="M225.788 484.077C228.709 484.077 231.077 481.709 231.077 478.788C231.077 475.868 228.709 473.5 225.788 473.5C222.868 473.5 220.5 475.868 220.5 478.788C220.5 481.709 222.868 484.077 225.788 484.077Z" fill="#BAF6EB"/>
<path d="M253.288 484.077C256.209 484.077 258.577 481.709 258.577 478.788C258.577 475.868 256.209 473.5 253.288 473.5C250.368 473.5 248 475.868 248 478.788C248 481.709 250.368 484.077 253.288 484.077Z" fill="#BAF6EB"/>
<path d="M280.788 484.077C283.709 484.077 286.077 481.709 286.077 478.788C286.077 475.868 283.709 473.5 280.788 473.5C277.868 473.5 275.5 475.868 275.5 478.788C275.5 481.709 277.868 484.077 280.788 484.077Z" fill="#BAF6EB"/>
<path d="M308.288 484.077C311.209 484.077 313.577 481.709 313.577 478.788C313.577 475.868 311.209 473.5 308.288 473.5C305.368 473.5 303 475.868 303 478.788C303 481.709 305.368 484.077 308.288 484.077Z" fill="#BAF6EB"/>
<path d="M5.78846 511.577C8.7092 511.577 11.0769 509.209 11.0769 506.288C11.0769 503.368 8.7092 501 5.78846 501C2.86772 501 0.5 503.368 0.5 506.288C0.5 509.209 2.86772 511.577 5.78846 511.577Z" fill="#BAF6EB"/>
<path d="M33.2885 511.577C36.2092 511.577 38.5769 509.209 38.5769 506.288C38.5769 503.368 36.2092 501 33.2885 501C30.3677 501 28 503.368 28 506.288C28 509.209 30.3677 511.577 33.2885 511.577Z" fill="#BAF6EB"/>
<path d="M60.7885 511.577C63.7092 511.577 66.0769 509.209 66.0769 506.288C66.0769 503.368 63.7092 501 60.7885 501C57.8677 501 55.5 503.368 55.5 506.288C55.5 509.209 57.8677 511.577 60.7885 511.577Z" fill="#BAF6EB"/>
<path d="M88.2885 511.577C91.2092 511.577 93.5769 509.209 93.5769 506.288C93.5769 503.368 91.2092 501 88.2885 501C85.3677 501 83 503.368 83 506.288C83 509.209 85.3677 511.577 88.2885 511.577Z" fill="#BAF6EB"/>
<path d="M115.788 511.577C118.709 511.577 121.077 509.209 121.077 506.288C121.077 503.368 118.709 501 115.788 501C112.868 501 110.5 503.368 110.5 506.288C110.5 509.209 112.868 511.577 115.788 511.577Z" fill="#BAF6EB"/>
<path d="M143.288 511.577C146.209 511.577 148.577 509.209 148.577 506.288C148.577 503.368 146.209 501 143.288 501C140.368 501 138 503.368 138 506.288C138 509.209 140.368 511.577 143.288 511.577Z" fill="#BAF6EB"/>
<path d="M170.788 511.577C173.709 511.577 176.077 509.209 176.077 506.288C176.077 503.368 173.709 501 170.788 501C167.868 501 165.5 503.368 165.5 506.288C165.5 509.209 167.868 511.577 170.788 511.577Z" fill="#BAF6EB"/>
<path d="M198.288 511.577C201.209 511.577 203.577 509.209 203.577 506.288C203.577 503.368 201.209 501 198.288 501C195.368 501 193 503.368 193 506.288C193 509.209 195.368 511.577 198.288 511.577Z" fill="#BAF6EB"/>
<path d="M225.788 511.577C228.709 511.577 231.077 509.209 231.077 506.288C231.077 503.368 228.709 501 225.788 501C222.868 501 220.5 503.368 220.5 506.288C220.5 509.209 222.868 511.577 225.788 511.577Z" fill="#BAF6EB"/>
<path d="M253.288 511.577C256.209 511.577 258.577 509.209 258.577 506.288C258.577 503.368 256.209 501 253.288 501C250.368 501 248 503.368 248 506.288C248 509.209 250.368 511.577 253.288 511.577Z" fill="#BAF6EB"/>
<path d="M280.788 511.577C283.709 511.577 286.077 509.209 286.077 506.288C286.077 503.368 283.709 501 280.788 501C277.868 501 275.5 503.368 275.5 506.288C275.5 509.209 277.868 511.577 280.788 511.577Z" fill="#BAF6EB"/>
<path d="M308.288 511.577C311.209 511.577 313.577 509.209 313.577 506.288C313.577 503.368 311.209 501 308.288 501C305.368 501 303 503.368 303 506.288C303 509.209 305.368 511.577 308.288 511.577Z" fill="#BAF6EB"/>
<path d="M5.78846 539.077C8.7092 539.077 11.0769 536.709 11.0769 533.788C11.0769 530.868 8.7092 528.5 5.78846 528.5C2.86772 528.5 0.5 530.868 0.5 533.788C0.5 536.709 2.86772 539.077 5.78846 539.077Z" fill="#BAF6EB"/>
<path d="M33.2885 539.077C36.2092 539.077 38.5769 536.709 38.5769 533.788C38.5769 530.868 36.2092 528.5 33.2885 528.5C30.3677 528.5 28 530.868 28 533.788C28 536.709 30.3677 539.077 33.2885 539.077Z" fill="#BAF6EB"/>
<path d="M60.7885 539.077C63.7092 539.077 66.0769 536.709 66.0769 533.788C66.0769 530.868 63.7092 528.5 60.7885 528.5C57.8677 528.5 55.5 530.868 55.5 533.788C55.5 536.709 57.8677 539.077 60.7885 539.077Z" fill="#BAF6EB"/>
<path d="M88.2885 539.077C91.2092 539.077 93.5769 536.709 93.5769 533.788C93.5769 530.868 91.2092 528.5 88.2885 528.5C85.3677 528.5 83 530.868 83 533.788C83 536.709 85.3677 539.077 88.2885 539.077Z" fill="#BAF6EB"/>
<path d="M115.788 539.077C118.709 539.077 121.077 536.709 121.077 533.788C121.077 530.868 118.709 528.5 115.788 528.5C112.868 528.5 110.5 530.868 110.5 533.788C110.5 536.709 112.868 539.077 115.788 539.077Z" fill="#BAF6EB"/>
<path d="M143.288 539.077C146.209 539.077 148.577 536.709 148.577 533.788C148.577 530.868 146.209 528.5 143.288 528.5C140.368 528.5 138 530.868 138 533.788C138 536.709 140.368 539.077 143.288 539.077Z" fill="#BAF6EB"/>
<path d="M170.788 539.077C173.709 539.077 176.077 536.709 176.077 533.788C176.077 530.868 173.709 528.5 170.788 528.5C167.868 528.5 165.5 530.868 165.5 533.788C165.5 536.709 167.868 539.077 170.788 539.077Z" fill="#BAF6EB"/>
<path d="M198.288 539.077C201.209 539.077 203.577 536.709 203.577 533.788C203.577 530.868 201.209 528.5 198.288 528.5C195.368 528.5 193 530.868 193 533.788C193 536.709 195.368 539.077 198.288 539.077Z" fill="#BAF6EB"/>
<path d="M225.788 539.077C228.709 539.077 231.077 536.709 231.077 533.788C231.077 530.868 228.709 528.5 225.788 528.5C222.868 528.5 220.5 530.868 220.5 533.788C220.5 536.709 222.868 539.077 225.788 539.077Z" fill="#BAF6EB"/>
<path d="M253.288 539.077C256.209 539.077 258.577 536.709 258.577 533.788C258.577 530.868 256.209 528.5 253.288 528.5C250.368 528.5 248 530.868 248 533.788C248 536.709 250.368 539.077 253.288 539.077Z" fill="#BAF6EB"/>
<path d="M280.788 539.077C283.709 539.077 286.077 536.709 286.077 533.788C286.077 530.868 283.709 528.5 280.788 528.5C277.868 528.5 275.5 530.868 275.5 533.788C275.5 536.709 277.868 539.077 280.788 539.077Z" fill="#BAF6EB"/>
<path d="M308.288 539.077C311.209 539.077 313.577 536.709 313.577 533.788C313.577 530.868 311.209 528.5 308.288 528.5C305.368 528.5 303 530.868 303 533.788C303 536.709 305.368 539.077 308.288 539.077Z" fill="#BAF6EB"/>
<path d="M5.78846 566.577C8.7092 566.577 11.0769 564.209 11.0769 561.288C11.0769 558.368 8.7092 556 5.78846 556C2.86772 556 0.5 558.368 0.5 561.288C0.5 564.209 2.86772 566.577 5.78846 566.577Z" fill="#BAF6EB"/>
<path d="M33.2885 566.577C36.2092 566.577 38.5769 564.209 38.5769 561.288C38.5769 558.368 36.2092 556 33.2885 556C30.3677 556 28 558.368 28 561.288C28 564.209 30.3677 566.577 33.2885 566.577Z" fill="#BAF6EB"/>
<path d="M60.7885 566.577C63.7092 566.577 66.0769 564.209 66.0769 561.288C66.0769 558.368 63.7092 556 60.7885 556C57.8677 556 55.5 558.368 55.5 561.288C55.5 564.209 57.8677 566.577 60.7885 566.577Z" fill="#BAF6EB"/>
<path d="M88.2885 566.577C91.2092 566.577 93.5769 564.209 93.5769 561.288C93.5769 558.368 91.2092 556 88.2885 556C85.3677 556 83 558.368 83 561.288C83 564.209 85.3677 566.577 88.2885 566.577Z" fill="#BAF6EB"/>
<path d="M115.788 566.577C118.709 566.577 121.077 564.209 121.077 561.288C121.077 558.368 118.709 556 115.788 556C112.868 556 110.5 558.368 110.5 561.288C110.5 564.209 112.868 566.577 115.788 566.577Z" fill="#BAF6EB"/>
<path d="M143.288 566.577C146.209 566.577 148.577 564.209 148.577 561.288C148.577 558.368 146.209 556 143.288 556C140.368 556 138 558.368 138 561.288C138 564.209 140.368 566.577 143.288 566.577Z" fill="#BAF6EB"/>
<path d="M170.788 566.577C173.709 566.577 176.077 564.209 176.077 561.288C176.077 558.368 173.709 556 170.788 556C167.868 556 165.5 558.368 165.5 561.288C165.5 564.209 167.868 566.577 170.788 566.577Z" fill="#BAF6EB"/>
<path d="M198.288 566.577C201.209 566.577 203.577 564.209 203.577 561.288C203.577 558.368 201.209 556 198.288 556C195.368 556 193 558.368 193 561.288C193 564.209 195.368 566.577 198.288 566.577Z" fill="#BAF6EB"/>
<path d="M225.788 566.577C228.709 566.577 231.077 564.209 231.077 561.288C231.077 558.368 228.709 556 225.788 556C222.868 556 220.5 558.368 220.5 561.288C220.5 564.209 222.868 566.577 225.788 566.577Z" fill="#BAF6EB"/>
<path d="M253.288 566.577C256.209 566.577 258.577 564.209 258.577 561.288C258.577 558.368 256.209 556 253.288 556C250.368 556 248 558.368 248 561.288C248 564.209 250.368 566.577 253.288 566.577Z" fill="#BAF6EB"/>
<path d="M280.788 566.577C283.709 566.577 286.077 564.209 286.077 561.288C286.077 558.368 283.709 556 280.788 556C277.868 556 275.5 558.368 275.5 561.288C275.5 564.209 277.868 566.577 280.788 566.577Z" fill="#BAF6EB"/>
<path d="M308.288 566.577C311.209 566.577 313.577 564.209 313.577 561.288C313.577 558.368 311.209 556 308.288 556C305.368 556 303 558.368 303 561.288C303 564.209 305.368 566.577 308.288 566.577Z" fill="#BAF6EB"/>
<path d="M5.78846 594.077C8.7092 594.077 11.0769 591.709 11.0769 588.788C11.0769 585.868 8.7092 583.5 5.78846 583.5C2.86772 583.5 0.5 585.868 0.5 588.788C0.5 591.709 2.86772 594.077 5.78846 594.077Z" fill="#BAF6EB"/>
<path d="M33.2885 594.077C36.2092 594.077 38.5769 591.709 38.5769 588.788C38.5769 585.868 36.2092 583.5 33.2885 583.5C30.3677 583.5 28 585.868 28 588.788C28 591.709 30.3677 594.077 33.2885 594.077Z" fill="#BAF6EB"/>
<path d="M60.7885 594.077C63.7092 594.077 66.0769 591.709 66.0769 588.788C66.0769 585.868 63.7092 583.5 60.7885 583.5C57.8677 583.5 55.5 585.868 55.5 588.788C55.5 591.709 57.8677 594.077 60.7885 594.077Z" fill="#BAF6EB"/>
<path d="M88.2885 594.077C91.2092 594.077 93.5769 591.709 93.5769 588.788C93.5769 585.868 91.2092 583.5 88.2885 583.5C85.3677 583.5 83 585.868 83 588.788C83 591.709 85.3677 594.077 88.2885 594.077Z" fill="#BAF6EB"/>
<path d="M115.788 594.077C118.709 594.077 121.077 591.709 121.077 588.788C121.077 585.868 118.709 583.5 115.788 583.5C112.868 583.5 110.5 585.868 110.5 588.788C110.5 591.709 112.868 594.077 115.788 594.077Z" fill="#BAF6EB"/>
<path d="M143.288 594.077C146.209 594.077 148.577 591.709 148.577 588.788C148.577 585.868 146.209 583.5 143.288 583.5C140.368 583.5 138 585.868 138 588.788C138 591.709 140.368 594.077 143.288 594.077Z" fill="#BAF6EB"/>
<path d="M170.788 594.077C173.709 594.077 176.077 591.709 176.077 588.788C176.077 585.868 173.709 583.5 170.788 583.5C167.868 583.5 165.5 585.868 165.5 588.788C165.5 591.709 167.868 594.077 170.788 594.077Z" fill="#BAF6EB"/>
<path d="M198.288 594.077C201.209 594.077 203.577 591.709 203.577 588.788C203.577 585.868 201.209 583.5 198.288 583.5C195.368 583.5 193 585.868 193 588.788C193 591.709 195.368 594.077 198.288 594.077Z" fill="#BAF6EB"/>
<path d="M225.788 594.077C228.709 594.077 231.077 591.709 231.077 588.788C231.077 585.868 228.709 583.5 225.788 583.5C222.868 583.5 220.5 585.868 220.5 588.788C220.5 591.709 222.868 594.077 225.788 594.077Z" fill="#BAF6EB"/>
<path d="M253.288 594.077C256.209 594.077 258.577 591.709 258.577 588.788C258.577 585.868 256.209 583.5 253.288 583.5C250.368 583.5 248 585.868 248 588.788C248 591.709 250.368 594.077 253.288 594.077Z" fill="#BAF6EB"/>
<path d="M280.788 594.077C283.709 594.077 286.077 591.709 286.077 588.788C286.077 585.868 283.709 583.5 280.788 583.5C277.868 583.5 275.5 585.868 275.5 588.788C275.5 591.709 277.868 594.077 280.788 594.077Z" fill="#BAF6EB"/>
<path d="M308.288 594.077C311.209 594.077 313.577 591.709 313.577 588.788C313.577 585.868 311.209 583.5 308.288 583.5C305.368 583.5 303 585.868 303 588.788C303 591.709 305.368 594.077 308.288 594.077Z" fill="#BAF6EB"/>
</g>
<defs>
<clipPath id="clip0_1211_1246">
<rect width="330" height="313.077" fill="white" transform="translate(397.5)"/>
</clipPath>
<clipPath id="clip1_1211_1246">
<rect width="330" height="313.077" fill="white" transform="translate(0.5 281)"/>
</clipPath>
</defs>
</svg>
