<svg width="44" height="44" viewBox="0 0 44 44" fill="none" xmlns="http://www.w3.org/2000/svg">
<rect x="0.5" y="0.5" width="43" height="43" rx="21.5" fill="white"/>
<path d="M25.75 20.5L30.4697 15.7803C30.9421 15.3079 31.75 15.6425 31.75 16.3107V27.6893C31.75 28.3575 30.9421 28.6921 30.4697 28.2197L25.75 23.5M14.5 28.75H23.5C24.7426 28.75 25.75 27.7426 25.75 26.5V17.5C25.75 16.2574 24.7426 15.25 23.5 15.25H14.5C13.2574 15.25 12.25 16.2574 12.25 17.5V26.5C12.25 27.7426 13.2574 28.75 14.5 28.75Z" stroke="#0F172A" stroke-width="1.5" stroke-linecap="round" stroke-linejoin="round"/>
<rect x="0.5" y="0.5" width="43" height="43" rx="21.5" stroke="black"/>
</svg>
