<svg width="64" height="64" viewBox="0 0 64 64" fill="none" xmlns="http://www.w3.org/2000/svg">
<g clip-path="url(#clip0_530_1142)">
<path d="M49.8245 26.9474C48.929 23.8595 47.2997 21.0342 45.0757 18.7125C42.8517 16.3907 40.0991 14.6415 37.0526 13.614C34.0428 12.738 30.8793 12.5227 27.7786 12.9829C24.6778 13.4432 21.7132 14.5681 19.0877 16.2807C18.8717 16.4972 18.6007 16.6508 18.304 16.7249C18.0073 16.7991 17.696 16.7911 17.4035 16.7018C16.8138 16.5107 16.2824 16.1726 15.8596 15.7193C15.5518 15.1639 15.4523 14.5169 15.5789 13.8947C15.6593 13.5961 15.8006 13.3173 15.9938 13.0757C16.187 12.8342 16.428 12.6352 16.7017 12.4912C24.1403 8.14035 31.4386 7.01754 38.4561 9.26315C41.911 10.4123 45.0652 12.3195 47.6879 14.845C50.3106 17.3705 52.3354 20.4506 53.614 23.8596H63.0175C61.0947 16.275 56.4597 9.65778 49.9887 5.25895C43.5177 0.860128 35.6593 -1.01538 27.8992 -0.0129656C20.1392 0.989447 13.0153 4.8003 7.87451 10.6991C2.73373 16.5979 -0.0676693 24.1758 -2.36331e-05 32C-2.36331e-05 33.2632 0.140327 34.386 0.140327 35.6491H12.0702C12.5258 35.6233 12.9774 35.7462 13.3572 35.9993C13.7369 36.2525 14.024 36.6221 14.1754 37.0526C15.0921 40.1298 16.7288 42.9443 18.9498 45.263C21.1709 47.5817 23.9124 49.3378 26.9473 50.386C29.9571 51.262 33.1207 51.4773 36.2214 51.0171C39.3221 50.5568 42.2867 49.4319 44.9123 47.7193C45.1283 47.5028 45.3992 47.3492 45.6959 47.275C45.9927 47.2009 46.304 47.2089 46.5965 47.2982C47.1862 47.4893 47.7175 47.8274 48.1403 48.2807C48.4481 48.8361 48.5477 49.4831 48.421 50.1053C48.3406 50.4039 48.1994 50.6827 48.0062 50.9243C47.813 51.1658 47.5719 51.3648 47.2982 51.5088C43.0675 54.3555 38.0817 55.8708 32.9824 55.8596C30.4622 55.8407 27.9574 55.4626 25.5438 54.7368C22.0745 53.6151 18.9063 51.7176 16.2798 49.1885C13.6534 46.6593 11.6377 43.5649 10.3859 40.1404H1.12278C3.15177 47.6002 7.81278 54.0733 14.2442 58.3632C20.6757 62.6531 28.4427 64.4696 36.1096 63.477C43.7765 62.4844 50.8248 58.7498 55.9518 52.9636C61.0787 47.1773 63.9376 39.7306 64 32C64.0261 30.8286 63.9792 29.6568 63.8596 28.4912H52.0702C51.5916 28.4596 51.1304 28.2995 50.7352 28.0278C50.34 27.7561 50.0254 27.3829 49.8245 26.9474Z" fill="white"/>
<path d="M32.1353 45.9992C34.8984 45.9727 37.5918 45.129 39.8763 43.5746C42.1608 42.0202 43.9343 39.8246 44.9733 37.2642C46.0123 34.7038 46.2704 31.8932 45.7151 29.1864C45.1598 26.4796 43.8159 23.9976 41.8527 22.0531C39.8896 20.1086 37.3949 18.7886 34.6829 18.2592C31.9709 17.7298 29.1629 18.0148 26.6125 19.0783C24.0622 20.1418 21.8836 21.9361 20.3511 24.2354C18.8187 26.5347 18.0009 29.2361 18.0007 31.9992C18.0006 33.8491 18.3672 35.6807 19.0791 37.3881C19.7911 39.0955 20.8344 40.6448 22.1487 41.9466C23.463 43.2484 25.0223 44.2768 26.7364 44.9724C28.4506 45.668 30.2855 46.017 32.1353 45.9992Z" fill="white"/>
</g>
<defs>
<clipPath id="clip0_530_1142">
<rect width="64" height="64" fill="white"/>
</clipPath>
</defs>
</svg>
