<svg width="240" height="64" viewBox="0 0 240 64" fill="none" xmlns="http://www.w3.org/2000/svg">
<g clip-path="url(#clip0_530_1134)">
<path d="M49.8226 26.9474C48.927 23.8596 47.2978 21.0343 45.0738 18.7125C42.8498 16.3908 40.0971 14.6416 37.0507 13.6141C34.0409 12.738 30.8773 12.5227 27.7766 12.983C24.6759 13.4433 21.7113 14.5682 19.0857 16.2808C18.8697 16.4973 18.5988 16.6508 18.3021 16.725C18.0054 16.7992 17.694 16.7912 17.4015 16.7018C16.8118 16.5108 16.2805 16.1727 15.8577 15.7194C15.5499 15.164 15.4503 14.517 15.577 13.8948C15.6574 13.5961 15.7986 13.3173 15.9918 13.0758C16.185 12.8343 16.4261 12.6353 16.6998 12.4913C24.1384 8.14041 31.4366 7.0176 38.4542 9.26322C41.909 10.4124 45.0633 12.3195 47.686 14.8451C50.3086 17.3706 52.3334 20.4506 53.6121 23.8597H63.0156C61.0928 16.2751 56.4577 9.65784 49.9867 5.25901C43.5157 0.860189 35.6573 -1.01532 27.8973 -0.0129045C20.1372 0.989508 13.0133 4.80036 7.87255 10.6992C2.73177 16.5979 -0.0696224 24.1758 -0.00197676 32.0001C-0.00197676 33.2632 0.138374 34.386 0.138374 35.6492H12.0682C12.5238 35.6233 12.9755 35.7462 13.3552 35.9994C13.7349 36.2525 14.0221 36.6222 14.1735 37.0527C15.0901 40.1299 16.7268 42.9444 18.9479 45.2631C21.1689 47.5818 23.9105 49.3379 26.9454 50.386C29.9552 51.2621 33.1187 51.4774 36.2194 51.0171C39.3202 50.5569 42.2848 49.4319 44.9103 47.7194C45.1264 47.5029 45.3973 47.3493 45.694 47.2751C45.9907 47.2009 46.302 47.209 46.5945 47.2983C47.1842 47.4893 47.7156 47.8275 48.1384 48.2808C48.4462 48.8361 48.5457 49.4831 48.4191 50.1053C48.3387 50.404 48.1974 50.6828 48.0042 50.9243C47.811 51.1658 47.57 51.3648 47.2963 51.5088C43.0656 54.3555 38.0797 55.8708 32.9805 55.8597C30.4602 55.8407 27.9555 55.4627 25.5419 54.7369C22.0725 53.6152 18.9043 51.7177 16.2779 49.1885C13.6514 46.6594 11.6358 43.565 10.384 40.1404H1.12083C3.14982 47.6003 7.81082 54.0734 14.2423 58.3633C20.6737 62.6531 28.4407 64.4697 36.1076 63.4771C43.7745 62.4845 50.8229 58.7499 55.9498 52.9636C61.0768 47.1774 63.9357 39.7307 63.998 32.0001C64.0241 30.8287 63.9773 29.6568 63.8577 28.4913H52.0682C51.5897 28.4597 51.1285 28.2996 50.7333 28.0279C50.3381 27.7562 50.0235 27.3829 49.8226 26.9474Z" fill="white"/>
<path d="M32.1333 45.9993C34.8963 45.9727 37.5897 45.1291 39.8742 43.5747C42.1587 42.0203 43.9322 39.8246 44.9712 37.2642C46.0102 34.7039 46.2683 31.8933 45.713 29.1864C45.1577 26.4796 43.8139 23.9977 41.8507 22.0532C39.8875 20.1087 37.3928 18.7886 34.6808 18.2593C31.9688 17.7299 29.1608 18.0149 26.6105 19.0784C24.0601 20.1418 21.8815 21.9362 20.3491 24.2355C18.8166 26.5348 17.9988 29.2361 17.9987 31.9993C17.9986 33.8492 18.3651 35.6807 19.0771 37.3881C19.789 39.0955 20.8323 40.6449 22.1466 41.9467C23.461 43.2485 25.0202 44.2769 26.7344 44.9725C28.4485 45.6681 30.2835 46.0171 32.1333 45.9993Z" fill="white"/>
</g>
<path d="M87.512 41.5V21.06H92.104V41.5H87.512ZM74.296 41.5V21.06H78.888V41.5H74.296ZM78.076 33.24V29.208H88.324V33.24H78.076ZM103.467 42.032C102.16 42.032 101.003 41.808 99.9945 41.36C99.0052 40.912 98.1745 40.3147 97.5025 39.568C96.8492 38.8027 96.3452 37.9533 95.9905 37.02C95.6545 36.068 95.4865 35.0973 95.4865 34.108V33.548C95.4865 32.5213 95.6545 31.5413 95.9905 30.608C96.3452 29.656 96.8492 28.8067 97.5025 28.06C98.1559 27.3133 98.9679 26.7253 99.9385 26.296C100.928 25.848 102.048 25.624 103.299 25.624C104.941 25.624 106.323 25.9973 107.443 26.744C108.581 27.472 109.449 28.4333 110.047 29.628C110.644 30.804 110.943 32.092 110.943 33.492V35.004H97.3625V32.456H108.227L106.771 33.632C106.771 32.7173 106.64 31.9333 106.379 31.28C106.117 30.6267 105.725 30.132 105.203 29.796C104.699 29.4413 104.064 29.264 103.299 29.264C102.515 29.264 101.852 29.4413 101.311 29.796C100.769 30.1507 100.359 30.6733 100.079 31.364C99.7985 32.036 99.6585 32.8667 99.6585 33.856C99.6585 34.7707 99.7892 35.5733 100.051 36.264C100.312 36.936 100.723 37.4587 101.283 37.832C101.843 38.2053 102.571 38.392 103.467 38.392C104.288 38.392 104.96 38.2333 105.483 37.916C106.005 37.5987 106.36 37.2067 106.547 36.74H110.663C110.439 37.7667 110 38.6813 109.347 39.484C108.693 40.2867 107.872 40.912 106.883 41.36C105.893 41.808 104.755 42.032 103.467 42.032ZM114.107 41.5V21.06H118.615V41.5H114.107ZM112.287 24.364V21.06H118.615V24.364H112.287ZM122.743 47.1V26.156H126.299V32.792L125.823 32.764C125.898 31.2333 126.215 29.9453 126.775 28.9C127.335 27.836 128.091 27.0427 129.043 26.52C129.995 25.9787 131.069 25.708 132.263 25.708C133.327 25.708 134.289 25.904 135.147 26.296C136.025 26.688 136.771 27.2387 137.387 27.948C138.022 28.6387 138.498 29.46 138.815 30.412C139.151 31.3453 139.319 32.372 139.319 33.492V34.136C139.319 35.2373 139.161 36.2733 138.843 37.244C138.526 38.196 138.059 39.0267 137.443 39.736C136.846 40.4453 136.109 41.0053 135.231 41.416C134.373 41.808 133.383 42.004 132.263 42.004C131.106 42.004 130.061 41.7707 129.127 41.304C128.213 40.8187 127.475 40.0907 126.915 39.12C126.355 38.1307 126.047 36.88 125.991 35.368L127.223 37.048V47.1H122.743ZM131.003 38.252C131.769 38.252 132.431 38.0653 132.991 37.692C133.57 37.3187 134.018 36.796 134.335 36.124C134.653 35.452 134.811 34.6773 134.811 33.8C134.811 32.9227 134.653 32.1573 134.335 31.504C134.018 30.8507 133.579 30.3467 133.019 29.992C132.459 29.6187 131.787 29.432 131.003 29.432C130.331 29.432 129.697 29.5907 129.099 29.908C128.502 30.2253 128.017 30.6827 127.643 31.28C127.289 31.8587 127.111 32.568 127.111 33.408V34.444C127.111 35.2467 127.298 35.9373 127.671 36.516C128.063 37.076 128.558 37.5053 129.155 37.804C129.753 38.1027 130.369 38.252 131.003 38.252ZM142.683 41.5V21.06H149.011L153.687 32.54H154.219L158.839 21.06H165.279V41.5H160.743V24.056L161.387 24.112L155.983 37.356H151.615L146.183 24.112L146.883 24.056V41.5H142.683ZM176.638 42.032C175.332 42.032 174.174 41.808 173.166 41.36C172.177 40.912 171.346 40.3147 170.674 39.568C170.021 38.8027 169.517 37.9533 169.162 37.02C168.826 36.068 168.658 35.0973 168.658 34.108V33.548C168.658 32.5213 168.826 31.5413 169.162 30.608C169.517 29.656 170.021 28.8067 170.674 28.06C171.328 27.3133 172.14 26.7253 173.11 26.296C174.1 25.848 175.22 25.624 176.47 25.624C178.113 25.624 179.494 25.9973 180.614 26.744C181.753 27.472 182.621 28.4333 183.218 29.628C183.816 30.804 184.114 32.092 184.114 33.492V35.004H170.534V32.456H181.398L179.942 33.632C179.942 32.7173 179.812 31.9333 179.55 31.28C179.289 30.6267 178.897 30.132 178.374 29.796C177.87 29.4413 177.236 29.264 176.47 29.264C175.686 29.264 175.024 29.4413 174.482 29.796C173.941 30.1507 173.53 30.6733 173.25 31.364C172.97 32.036 172.83 32.8667 172.83 33.856C172.83 34.7707 172.961 35.5733 173.222 36.264C173.484 36.936 173.894 37.4587 174.454 37.832C175.014 38.2053 175.742 38.392 176.638 38.392C177.46 38.392 178.132 38.2333 178.654 37.916C179.177 37.5987 179.532 37.2067 179.718 36.74H183.834C183.61 37.7667 183.172 38.6813 182.518 39.484C181.865 40.2867 181.044 40.912 180.054 41.36C179.065 41.808 177.926 42.032 176.638 42.032ZM197.135 42.032C195.287 42.032 193.672 41.7147 192.291 41.08C190.928 40.4267 189.799 39.5773 188.903 38.532C188.007 37.468 187.335 36.32 186.887 35.088C186.458 33.856 186.243 32.6707 186.243 31.532V30.916C186.243 29.6467 186.467 28.396 186.915 27.164C187.382 25.9133 188.072 24.784 188.987 23.776C189.902 22.768 191.04 21.9653 192.403 21.368C193.766 20.752 195.343 20.444 197.135 20.444C198.927 20.444 200.504 20.752 201.867 21.368C203.23 21.9653 204.368 22.768 205.283 23.776C206.198 24.784 206.888 25.9133 207.355 27.164C207.822 28.396 208.055 29.6467 208.055 30.916V31.532C208.055 32.6707 207.831 33.856 207.383 35.088C206.935 36.32 206.263 37.468 205.367 38.532C204.471 39.5773 203.332 40.4267 201.951 41.08C200.588 41.7147 198.983 42.032 197.135 42.032ZM197.135 37.748C198.106 37.748 198.974 37.58 199.739 37.244C200.523 36.908 201.186 36.4413 201.727 35.844C202.287 35.2467 202.707 34.556 202.987 33.772C203.267 32.988 203.407 32.148 203.407 31.252C203.407 30.3 203.258 29.432 202.959 28.648C202.679 27.8453 202.259 27.1547 201.699 26.576C201.158 25.9787 200.504 25.5213 199.739 25.204C198.974 24.8867 198.106 24.728 197.135 24.728C196.164 24.728 195.296 24.8867 194.531 25.204C193.766 25.5213 193.103 25.9787 192.543 26.576C192.002 27.1547 191.591 27.8453 191.311 28.648C191.031 29.432 190.891 30.3 190.891 31.252C190.891 32.148 191.031 32.988 191.311 33.772C191.591 34.556 192.002 35.2467 192.543 35.844C193.103 36.4413 193.766 36.908 194.531 37.244C195.296 37.58 196.164 37.748 197.135 37.748ZM216.462 41.976C214.689 41.976 213.326 41.4067 212.374 40.268C211.422 39.1107 210.946 37.3747 210.946 35.06V26.156H215.426V35.284C215.426 36.1053 215.66 36.7587 216.126 37.244C216.593 37.7293 217.218 37.972 218.002 37.972C218.805 37.972 219.458 37.72 219.962 37.216C220.466 36.712 220.718 36.0307 220.718 35.172V26.156H225.198V41.5H221.642V35.032H221.95C221.95 36.5813 221.745 37.8787 221.334 38.924C220.942 39.9507 220.354 40.716 219.57 41.22C218.786 41.724 217.816 41.976 216.658 41.976H216.462ZM236.301 41.696C234.752 41.696 233.501 41.5093 232.549 41.136C231.597 40.744 230.897 40.1 230.449 39.204C230.02 38.2893 229.805 37.0573 229.805 35.508V22.012H233.977V35.676C233.977 36.404 234.164 36.964 234.537 37.356C234.929 37.7293 235.48 37.916 236.189 37.916H238.457V41.696H236.301ZM227.481 29.432V26.156H238.457V29.432H227.481Z" fill="white"/>
<defs>
<clipPath id="clip0_530_1134">
<rect width="64" height="64" fill="white"/>
</clipPath>
</defs>
</svg>
