<svg width="44" height="44" viewBox="0 0 44 44" fill="none" xmlns="http://www.w3.org/2000/svg">
<rect x="0.5" y="0.5" width="43" height="43" rx="21.5" fill="white"/>
<path d="M22 28.75C25.3137 28.75 28 26.0637 28 22.75V21.25M22 28.75C18.6863 28.75 16 26.0637 16 22.75V21.25M22 28.75V32.5M18.25 32.5H25.75M22 25.75C20.3431 25.75 19 24.4069 19 22.75V14.5C19 12.8431 20.3431 11.5 22 11.5C23.6569 11.5 25 12.8431 25 14.5V22.75C25 24.4069 23.6569 25.75 22 25.75Z" stroke="#0F172A" stroke-width="1.5" stroke-linecap="round" stroke-linejoin="round"/>
<rect x="0.5" y="0.5" width="43" height="43" rx="21.5" stroke="black"/>
</svg>
