<svg width="33" height="32" viewBox="0 0 33 32" fill="none" xmlns="http://www.w3.org/2000/svg">
<path d="M16.4697 26.25C10.8256 26.25 6.21973 21.6536 6.21973 16C6.21973 10.3464 10.8256 5.75 16.4697 5.75C22.1139 5.75 26.7197 10.3464 26.7197 16C26.7197 21.6539 22.1236 26.25 16.4697 26.25ZM16.4697 6.25C11.0936 6.25 6.71973 10.6239 6.71973 16C6.71973 21.3761 11.0936 25.75 16.4697 25.75C21.8459 25.75 26.2197 21.3761 26.2197 16C26.2197 10.6239 21.8459 6.25 16.4697 6.25Z" fill="#292D32" stroke="#141414"/>
<path d="M16.6305 12.4532L16.6307 12.4533L19.5305 14.1232C20.5362 14.703 21.0002 15.4603 21.0002 16.23C21.0002 16.9906 20.5352 17.7575 19.5305 18.3368L16.6307 20.0067L16.6307 20.0066L16.624 20.0106C16.0688 20.342 15.5263 20.49 15.0602 20.49C14.7055 20.49 14.3716 20.4018 14.0793 20.2364C13.4177 19.8506 12.9902 19.067 12.9902 17.91V14.56C12.9902 13.398 13.4112 12.6162 14.0715 12.2322C14.7307 11.849 15.6231 11.8723 16.6305 12.4532ZM16.386 19.5854L16.386 19.5854L16.3898 19.5833L19.2898 17.9133L19.2913 17.9124C19.9607 17.5237 20.5102 16.9429 20.5102 16.24C20.5102 15.5346 19.9466 14.9543 19.2944 14.5694L19.2944 14.5694L19.2898 14.5667L16.3935 12.8989C15.949 12.6328 15.4907 12.47 15.0602 12.47C14.8152 12.47 14.5507 12.523 14.3241 12.6606C13.7111 13.0193 13.4902 13.7867 13.4902 14.56V17.91C13.4902 18.6664 13.7079 19.4543 14.3315 19.8038C14.9435 20.1627 15.7305 19.9554 16.386 19.5854Z" fill="#292D32" stroke="#141414"/>
</svg>
