<svg width="33" height="32" viewBox="0 0 33 32" fill="none" xmlns="http://www.w3.org/2000/svg">
<path d="M16.5 19.25C14.7061 19.25 13.25 17.7939 13.25 16C13.25 14.2061 14.7061 12.75 16.5 12.75C18.2939 12.75 19.75 14.2061 19.75 16C19.75 17.7939 18.2939 19.25 16.5 19.25ZM16.5 13.25C14.9839 13.25 13.75 14.4839 13.75 16C13.75 17.5161 14.9839 18.75 16.5 18.75C18.0161 18.75 19.25 17.5161 19.25 16C19.25 14.4839 18.0161 13.25 16.5 13.25Z" fill="#292D32" stroke="#141414"/>
<path d="M13.7951 25.6259L13.7951 25.6259L13.7897 25.6273C13.2894 25.7623 12.7794 25.6906 12.3472 25.4313L12.3473 25.4312L12.3394 25.4267L10.6194 24.4367L10.6188 24.4364C10.1259 24.1535 9.76895 23.6938 9.61296 23.1306C9.46627 22.565 9.54116 21.9913 9.82369 21.4989L9.82465 21.4972C9.98974 21.2069 10.1088 20.9076 10.156 20.6179C10.2029 20.3301 10.1837 20.0141 10.0213 19.7372C9.71133 19.2083 9.03815 19.03 8.4 19.03C7.21614 19.03 6.25 18.0639 6.25 16.88V15.12C6.25 13.9362 7.21614 12.97 8.4 12.97C9.03815 12.97 9.71133 12.7918 10.0213 12.2629C10.3349 11.728 10.145 11.0484 9.82247 10.4991C9.54025 10.0059 9.46658 9.42245 9.61336 8.86799L9.61381 8.86625C9.75952 8.30769 10.1134 7.84907 10.6158 7.56545L10.6158 7.56546L10.6183 7.56401L12.3483 6.57401L12.3484 6.57406L12.355 6.57013C13.2421 6.04416 14.4272 6.3472 14.9696 7.26453L14.9696 7.26454L14.9713 7.26729L15.0893 7.46398C15.42 8.03416 15.9019 8.47504 16.515 8.47504C17.1294 8.47504 17.6119 8.0324 17.9427 7.46056C17.9427 7.4605 17.9428 7.46045 17.9428 7.46039L18.0513 7.2729C18.0516 7.27253 18.0518 7.27216 18.052 7.27178C18.5945 6.3478 19.777 6.04447 20.6739 6.57945L20.6738 6.5795L20.6806 6.58339L22.4006 7.57339L22.4012 7.57373C22.8941 7.85658 23.2511 8.31626 23.407 8.87951C23.5537 9.44513 23.4788 10.0188 23.1963 10.5112L23.1954 10.5129C23.0303 10.8032 22.9112 11.1025 22.864 11.3922C22.8171 11.68 22.8363 11.996 22.9987 12.2729C23.3087 12.8018 23.9819 12.98 24.62 12.98C25.8039 12.98 26.77 13.9462 26.77 15.13V16.89C26.77 18.0739 25.8039 19.04 24.62 19.04C23.9818 19.04 23.3087 19.2183 22.9987 19.7472C22.6851 20.2821 22.875 20.9616 23.1975 21.511C23.4824 22.0087 23.5608 22.5901 23.4084 23.1355L23.4084 23.1355L23.4062 23.1438C23.2605 23.7024 22.9066 24.161 22.4042 24.4446L22.4017 24.4461L20.6751 25.4341C20.3657 25.6044 20.0395 25.69 19.71 25.69C19.55 25.69 19.3823 25.6675 19.2042 25.6256C18.7097 25.4879 18.3 25.1782 18.0387 24.7428L17.9207 24.546C17.5899 23.9759 17.1081 23.535 16.495 23.535C15.8806 23.535 15.398 23.9778 15.0672 24.5497L14.9592 24.7362C14.9589 24.7367 14.9586 24.7372 14.9583 24.7377C14.6931 25.1869 14.2813 25.5004 13.7951 25.6259ZM18.3567 24.2895L18.3573 24.2906L18.4659 24.4781C18.4661 24.4786 18.4664 24.479 18.4667 24.4795C18.6561 24.8101 18.9704 25.043 19.3387 25.1351C19.6931 25.2237 20.0696 25.1839 20.3933 24.9911L22.1199 23.9931C22.4901 23.7795 22.7775 23.4226 22.8931 22.9889C23.0063 22.5644 22.951 22.1179 22.7331 21.7402L22.7322 21.7387C22.2242 20.8653 22.2069 20.0507 22.5341 19.4781C22.8586 18.9102 23.5688 18.52 24.59 18.52C25.5061 18.52 26.24 17.7862 26.24 16.87V15.11C26.24 14.2067 25.509 13.46 24.59 13.46C23.5688 13.46 22.8586 13.0699 22.5341 12.502C22.2069 11.9294 22.2242 11.1148 22.7322 10.2414L22.7331 10.2399C22.951 9.86223 23.0063 9.41565 22.8931 8.99121C22.7776 8.55819 22.5025 8.21601 22.142 7.99421L22.1353 7.99003L22.1283 7.98608L20.403 6.99874C19.7278 6.5948 18.8551 6.83623 18.4595 7.50568L18.4595 7.50567L18.4573 7.50952L18.3473 7.69952L18.3467 7.70056C17.8372 8.5854 17.1503 9.00004 16.49 9.00004C15.8308 9.00004 15.1449 8.58668 14.6357 7.70467L14.5281 7.50908L14.524 7.50162L14.5196 7.4943C14.1304 6.84037 13.2677 6.60931 12.5993 6.99743C12.5991 6.99755 12.5989 6.99767 12.5987 6.99779L10.8701 7.99695C10.87 7.997 10.87 7.99706 10.8699 7.99711C10.8698 7.99713 10.8698 7.99714 10.8698 7.99716C10.4997 8.21077 10.2125 8.56764 10.0969 9.00121C9.9837 9.42565 10.039 9.87223 10.2569 10.2499L10.2578 10.2514C10.7658 11.1248 10.7831 11.9394 10.4559 12.512C10.1314 13.0799 9.4212 13.47 8.4 13.47C7.48386 13.47 6.75 14.2039 6.75 15.12V16.88C6.75 17.7833 7.48103 18.53 8.4 18.53C9.4212 18.53 10.1314 18.9202 10.4559 19.4881C10.7831 20.0607 10.7658 20.8753 10.2578 21.7487L10.2569 21.7502C10.039 22.1279 9.9837 22.5744 10.0969 22.9989C10.2124 23.4319 10.4875 23.7741 10.848 23.9959L10.8547 24L10.8617 24.004L12.585 24.9902C12.9162 25.192 13.3036 25.2352 13.6537 25.1445C14.0345 25.0485 14.336 24.7987 14.5251 24.4932L14.529 24.4869L14.5327 24.4806L14.6422 24.2914C14.6423 24.2913 14.6424 24.2912 14.6424 24.291C15.1537 23.4123 15.8419 22.99 16.5 22.99C17.1603 22.99 17.8472 23.4047 18.3567 24.2895Z" fill="#292D32" stroke="#141414"/>
</svg>
