<svg width="33" height="32" viewBox="0 0 33 32" fill="none" xmlns="http://www.w3.org/2000/svg">
<path d="M14.7872 23.3375L14.7855 23.3364L11.8655 21.5064L11.8656 21.5064L11.8572 21.5014C11.5881 21.3399 11.2701 21.2401 10.94 21.2401H9.5C8.37908 21.2401 7.58544 20.9334 7.07105 20.4191C6.55667 19.9047 6.25 19.111 6.25 17.9901V13.9901C6.25 12.8692 6.55667 12.0755 7.07105 11.5612C7.58544 11.0468 8.37908 10.7401 9.5 10.7401H10.93C11.2601 10.7401 11.5781 10.6404 11.8472 10.4789L11.8473 10.4789L11.8555 10.4738L14.7745 8.64443C14.7747 8.64432 14.7748 8.6442 14.775 8.64409C16.1442 7.79088 17.3628 7.69653 18.2678 8.19755C19.1729 8.69854 19.74 9.77758 19.74 11.4001V20.5701C19.74 22.1808 19.1639 23.2722 18.2662 23.7736L18.2661 23.7735L18.2556 23.7796C17.9025 23.9883 17.4927 24.0901 17.05 24.0901C16.3766 24.0901 15.5981 23.8502 14.7872 23.3375ZM12.1216 21.0919L12.1245 21.0938L15.0445 22.9238L15.045 22.9241C16.0535 23.5544 17.1789 23.8331 18.0334 23.3568C18.8844 22.8825 19.25 21.7914 19.25 20.6001V11.4101C19.25 10.2142 18.8871 9.11707 18.0307 8.65184C17.179 8.17904 16.0569 8.44377 15.044 9.0867L12.1162 10.9054L12.1161 10.9053L12.1072 10.9111C11.7642 11.1344 11.3504 11.2501 10.93 11.2501H9.5C8.65353 11.2501 7.93049 11.4275 7.42895 11.9291C6.9274 12.4306 6.75 13.1536 6.75 14.0001V18.0001C6.75 18.8466 6.9274 19.5696 7.42895 20.0712C7.93049 20.5727 8.65353 20.7501 9.5 20.7501H10.93C11.3585 20.7501 11.7647 20.8649 12.1216 21.0919Z" fill="#292D32" stroke="#141414"/>
<path d="M22.2988 19.852L22.3 19.8503C24.0037 17.5824 24.0037 14.4176 22.3 12.1497L22.3 12.1497L22.2988 12.1481C22.2194 12.0432 22.2373 11.8856 22.3522 11.7986C22.4568 11.7193 22.6138 11.7369 22.701 11.851C24.527 14.2933 24.5267 17.7084 22.7001 20.1503C22.6489 20.2184 22.5802 20.25 22.5003 20.25C22.4541 20.25 22.4062 20.2382 22.3471 20.1975C22.2368 20.1097 22.2206 19.9553 22.2988 19.852Z" fill="#292D32" stroke="#141414"/>
<path d="M24.1289 22.352L24.1304 22.35C26.9337 18.6123 26.9337 13.3878 24.1304 9.65003L24.1304 9.65002L24.1289 9.6481C24.0494 9.54321 24.0674 9.38564 24.1823 9.29857C24.287 9.21927 24.4441 9.23697 24.5313 9.35129C27.467 13.2634 27.4667 18.7381 24.5305 22.6499L24.5255 22.6565L24.5207 22.6633C24.4872 22.7111 24.4211 22.75 24.3304 22.75C24.2842 22.75 24.2362 22.7382 24.1772 22.6975C24.0668 22.6097 24.0506 22.4553 24.1289 22.352Z" fill="#292D32" stroke="#141414"/>
</svg>
